SplineFontDB: 3.0
FontName: Caulixtla-Mono
FullName: Caulixtla Mono
FamilyName: Caulixtla Mono
Weight: Medium
Copyright: Copyright (c) 2015-2017 Belleve Invis. OFL, reserved name "Iosevka"
Version: 0.0.1; ttfautohint (v1.7.9-c794)
ItalicAngle: 0
UnderlinePosition: -75
UnderlineWidth: 50
Ascent: 800
Descent: 200
InvalidEm: 0
sfntRevision: 0x00010000
LayerCount: 2
Layer: 0 1 "Back" 1
Layer: 1 1 "Fore" 0
XUID: [1021 590 -1373747595 18178]
StyleMap: 0x0040
FSType: 0
OS2Version: 4
OS2_WeightWidthSlopeOnly: 0
OS2_UseTypoMetrics: 1
CreationTime: 1479708639
ModificationTime: 1527983101
PfmFamily: 17
TTFWeight: 500
TTFWidth: 5
LineGap: 67
VLineGap: 0
Panose: 2 0 6 9 0 0 0 0 0 0
OS2TypoAscent: 977
OS2TypoAOffset: 0
OS2TypoDescent: -272
OS2TypoDOffset: 0
OS2TypoLinegap: 0
OS2WinAscent: 977
OS2WinAOffset: 0
OS2WinDescent: 272
OS2WinDOffset: 0
HheadAscent: 977
HheadAOffset: 0
HheadDescent: -205
HheadDOffset: 0
OS2SubXSize: 665
OS2SubYSize: 716
OS2SubXOff: 0
OS2SubYOff: 143
OS2SupXSize: 0
OS2SupYSize: 0
OS2SupXOff: 0
OS2SupYOff: 0
OS2StrikeYSize: 51
OS2StrikeYPos: 265
OS2CapHeight: 735
OS2XHeight: 530
OS2FamilyClass: 2057
OS2Vendor: 'CYEL'
OS2CodePages: 2000011f.c4000000
OS2UnicodeRanges: e00002ff.5240fcfb.00040000.00000000
Lookup: 1 0 0 "Single Substitution lookup 0" { "Single Substitution lookup 0 subtable"  } []
Lookup: 1 0 0 "Single Substitution lookup 1" { "Single Substitution lookup 1 subtable"  } []
Lookup: 1 0 0 "Single Substitution lookup 2" { "Single Substitution lookup 2 subtable"  } []
Lookup: 6 0 0 "'ccmp' Composici+APMA-n/descomposici+APMA-n de glifos lookup 3" { "'ccmp' Composici+APMA-n/descomposici+APMA-n de glifos lookup 3 subtable"  } ['ccmp' ('DFLT' <'dflt' > 'cyrl' <'BGR ' 'MKD ' 'SRB ' 'dflt' > 'grek' <'dflt' > 'hani' <'dflt' > 'kana' <'dflt' > 'latn' <'dflt' > ) ]

StartChar: exclam
Encoding: 33 33 2
Width: 500
GlyphClass: 2
Flags: W
AnchorPoint: "Anclaje-5" 440 0 basechar 0
AnchorPoint: "Anclaje-4" 440 735 basechar 0
AnchorPoint: "Anclaje-3" 250 367 basechar 0
AnchorPoint: "Anclaje-2" 250 382 basechar 0
AnchorPoint: "Anclaje-1" 250 0 basechar 0
AnchorPoint: "Anclaje-0" 250 735 basechar 0
LayerCount: 2
Fore
SplineSet
200 260 m 1,0,-1
 200 735 l 1,1,-1
 300 735 l 1,2,-1
 300 260 l 1,3,-1
 200 260 l 1,0,-1
250 -8 m 256,4,5
 225 -8 225 -8 207 2 c 0,6,7
 192 11 192 11 182 27 c 0,8,9
 172 45 172 45 172 70 c 128,-1,10
 172 95 172 95 182 113 c 0,11,12
 192 129 192 129 207 138 c 0,13,14
 225 148 225 148 250 148 c 256,15,16
 275 148 275 148 293 138 c 0,17,18
 308 129 308 129 318 113 c 0,19,20
 328 95 328 95 328 70 c 128,-1,21
 328 45 328 45 318 27 c 0,22,23
 308 11 308 11 293 2 c 0,24,25
 275 -8 275 -8 250 -8 c 256,4,5
EndSplineSet
EndChar

StartChar: quotedbl
Encoding: 34 34 3
Width: 500
GlyphClass: 2
Flags: W
LayerCount: 2
Fore
SplineSet
303 451 m 1,0,1
 301 490 301 490 299 530 c 2,2,-1
 299 539 l 2,3,4
 299 541 299 541 299 543 c 0,5,6
 299 546 299 546 299 549 c 2,7,-1
 298 559 l 2,8,9
 297 596 297 596 296 633 c 2,10,-1
 296 643 l 2,11,12
 296 655 296 655 296 667.5 c 128,-1,13
 296 680 296 680 295 693 c 2,14,-1
 295 703 l 2,15,16
 295 710 295 710 295 718 c 0,17,18
 295 738 295 738 295 757 c 2,19,-1
 295 767 l 2,20,21
 295 769 295 769 295 772 c 2,22,-1
 405 772 l 1,23,24
 405 747 405 747 405 722 c 2,25,-1
 405 712 l 2,26,27
 405 703 405 703 405 693 c 2,28,-1
 404 683 l 1,29,30
 404 620 404 620 402 559 c 2,31,-1
 401 548 l 2,32,33
 401 544 401 544 401 539 c 2,34,-1
 400 529 l 1,35,-1
 400 528 l 2,36,37
 400 526 400 526 400 525 c 2,38,-1
 400 515 l 2,39,40
 399 482 399 482 397 451 c 1,41,-1
 303 451 l 1,0,1
103 451 m 1,42,43
 101 490 101 490 99 530 c 2,44,-1
 99 539 l 2,45,46
 99 541 99 541 99 543 c 0,47,48
 99 546 99 546 99 549 c 2,49,-1
 98 559 l 2,50,51
 97 596 97 596 96 633 c 2,52,-1
 96 643 l 2,53,54
 96 655 96 655 96 667.5 c 128,-1,55
 96 680 96 680 95 693 c 2,56,-1
 95 703 l 2,57,58
 95 710 95 710 95 718 c 0,59,60
 95 738 95 738 95 757 c 2,61,-1
 95 767 l 2,62,63
 95 769 95 769 95 772 c 2,64,-1
 205 772 l 1,65,66
 205 747 205 747 205 722 c 2,67,-1
 205 712 l 2,68,69
 205 703 205 703 205 693 c 2,70,-1
 204 683 l 1,71,72
 204 620 204 620 202 559 c 2,73,-1
 201 548 l 2,74,75
 201 544 201 544 201 539 c 2,76,-1
 200 529 l 1,77,-1
 200 528 l 2,78,79
 200 526 200 526 200 525 c 2,80,-1
 200 515 l 2,81,82
 199 482 199 482 197 451 c 1,83,-1
 103 451 l 1,42,43
EndSplineSet
EndChar

StartChar: numbersign
Encoding: 35 35 4
Width: 500
GlyphClass: 2
Flags: W
LayerCount: 2
Fore
SplineSet
103 -88 m 1,0,-1
 103 139 l 1,1,-1
 18 139 l 1,2,-1
 18 229 l 1,3,-1
 103 229 l 1,4,-1
 103 501 l 1,5,-1
 18 501 l 1,6,-1
 18 591 l 1,7,-1
 103 591 l 1,8,-1
 103 818 l 1,9,-1
 194 818 l 1,10,-1
 194 591 l 1,11,-1
 306 591 l 1,12,-1
 306 818 l 1,13,-1
 397 818 l 1,14,-1
 397 591 l 1,15,-1
 482 591 l 1,16,-1
 482 501 l 1,17,-1
 397 501 l 1,18,-1
 397 229 l 1,19,-1
 482 229 l 1,20,-1
 482 139 l 1,21,-1
 397 139 l 1,22,-1
 397 -88 l 1,23,-1
 306 -88 l 1,24,-1
 306 139 l 1,25,-1
 194 139 l 1,26,-1
 194 -88 l 1,27,-1
 103 -88 l 1,0,-1
194 229 m 1,28,-1
 306 229 l 1,29,-1
 306 501 l 1,30,-1
 194 501 l 1,31,-1
 194 229 l 1,28,-1
EndSplineSet
Substitution2: "'ss09' Style Set 9 lookup 51 subtable" numbersign.ss09
Substitution2: "'ss11' Style Set 11 lookup 50 subtable" numbersign.ss11
EndChar

StartChar: dollar
Encoding: 36 36 5
Width: 500
GlyphClass: 2
Flags: W
AnchorPoint: "Anclaje-5" 440 0 basechar 0
AnchorPoint: "Anclaje-4" 440 735 basechar 0
AnchorPoint: "Anclaje-3" 250 367 basechar 0
AnchorPoint: "Anclaje-2" 250 382 basechar 0
AnchorPoint: "Anclaje-1" 250 0 basechar 0
AnchorPoint: "Anclaje-0" 250 735 basechar 0
LayerCount: 2
Fore
SplineSet
204 -103 m 1,0,-1
 204 32 l 1,1,2
 164 38 164 38 133 55 c 0,3,4
 96 77 96 77 75.5 113 c 128,-1,5
 55 149 55 149 54 189 c 0,6,7
 55 191 55 191 54 192 c 2,8,-1
 145 202 l 2,9,10
 145 201 145 201 144.5 199 c 128,-1,11
 144 197 144 197 144 196 c 0,12,13
 145 174 145 174 155 156 c 0,14,15
 166 137 166 137 186 125 c 0,16,17
 197 119 197 119 210 115 c 1,18,-1
 210 339 l 1,19,20
 187 350 187 350 171 359 c 0,21,22
 112 393 112 393 85 441 c 0,23,24
 59 484 59 484 59 532.5 c 128,-1,25
 59 581 59 581 82 621 c 0,26,27
 104 658 104 658 142 680 c 0,28,29
 169 696 169 696 204 702 c 1,30,-1
 204 838 l 1,31,-1
 296 838 l 1,32,-1
 296 703 l 1,33,34
 336 697 336 697 367 680 c 0,35,36
 404 658 404 658 424.5 622 c 128,-1,37
 445 586 445 586 446 546 c 0,38,39
 445 544 445 544 446 543 c 2,40,-1
 355 533 l 2,41,42
 355 534 355 534 355.5 536 c 128,-1,43
 356 538 356 538 356 539 c 0,44,45
 355 561 355 561 345 579 c 0,46,47
 334 598 334 598 314 610 c 0,48,49
 303 616 303 616 290 620 c 1,50,-1
 290 396 l 1,51,52
 313 385 313 385 329 376 c 0,53,54
 388 342 388 342 415 294 c 0,55,56
 441 251 441 251 441 202.5 c 128,-1,57
 441 154 441 154 418 114 c 0,58,59
 396 77 396 77 358 55 c 0,60,61
 331 39 331 39 296 33 c 1,62,-1
 296 -103 l 1,63,-1
 204 -103 l 1,0,-1
210 438 m 1,64,-1
 210 618 l 1,65,66
 201 615 201 615 193 610 c 0,67,68
 173 599 173 599 162 579 c 0,69,70
 150 559 150 559 150 535 c 0,71,72
 150 508 150 508 164 485 c 0,73,74
 179 459 179 459 210 438 c 1,64,-1
290 117 m 1,75,76
 299 120 299 120 307 125 c 0,77,78
 327 136 327 136 338 156 c 0,79,80
 350 176 350 176 350 200 c 0,81,82
 350 227 350 227 336 250 c 0,83,84
 321 276 321 276 290 297 c 1,85,-1
 290 117 l 1,75,76
EndSplineSet
Substitution2: "'ss11' Style Set 11 lookup 59 subtable" dollar.ss11
Substitution2: "'ss09' Style Set 9 lookup 58 subtable" dollar.ss09
EndChar

StartChar: percent
Encoding: 37 37 6
Width: 500
GlyphClass: 2
Flags: W
LayerCount: 2
Fore
SplineSet
59 515 m 1,0,-1
 59 735 l 1,1,-1
 179 735 l 1,2,-1
 179 515 l 1,3,-1
 59 515 l 1,0,-1
59 0 m 1,4,-1
 332 735 l 1,5,-1
 441 735 l 1,6,-1
 168 0 l 1,7,-1
 59 0 l 1,4,-1
321 0 m 1,8,-1
 321 221 l 1,9,-1
 441 221 l 1,10,-1
 441 0 l 1,11,-1
 321 0 l 1,8,-1
EndSplineSet
EndChar

StartChar: ampersand
Encoding: 38 38 7
Width: 500
GlyphClass: 2
Flags: W
LayerCount: 2
Fore
SplineSet
250 -8 m 256,0,1
 189 -8 189 -8 145 17 c 0,2,3
 104 41 104 41 80 83 c 0,4,5
 51 132 51 132 51 195 c 0,6,7
 51 253 51 253 82 305 c 0,8,9
 100 336 100 336 144 378 c 1,10,11
 136 390 136 390 130 400 c 0,12,13
 79 489 79 489 78 572 c 0,14,15
 79 629 79 629 103 670 c 0,16,17
 122 704 122 704 155.5 723.5 c 128,-1,18
 189 743 189 743 236 743 c 0,19,20
 282 743 282 743 317 723 c 0,21,22
 349 704 349 704 369 670 c 0,23,24
 393 628 393 628 393 574 c 0,25,26
 393 519 393 519 363 467 c 0,27,28
 339 426 339 426 271 368 c 1,29,30
 299 331 299 331 337 286 c 0,31,32
 343 279 343 279 349 272 c 1,33,-1
 349 368 l 1,34,-1
 449 368 l 1,35,-1
 449 203 l 2,36,37
 449 169 449 169 442 141 c 1,38,39
 479 70 479 70 479 0 c 1,40,-1
 379 0 l 1,41,42
 379 16 379 16 377 32 c 1,43,44
 366 24 366 24 355 17 c 0,45,46
 311 -8 311 -8 250 -8 c 256,0,1
221 444 m 1,47,48
 258 478 258 478 273 503 c 0,49,50
 293 539 293 539 293 575 c 0,51,52
 293 617 293 617 271 639 c 0,53,54
 257 653 257 653 236 653 c 256,55,56
 215 653 215 653 201 639 c 0,57,58
 179 617 179 617 178 572 c 0,59,60
 179 517 179 517 218 448 c 1,61,-1
 221 444 l 1,47,48
250 82 m 0,62,63
 277 82 277 82 297 94 c 0,64,65
 318 106 318 106 331 128 c 0,66,67
 333 132 333 132 335 136 c 2,68,-1
 336 139 l 1,69,70
 310 181 310 181 249 248 c 0,71,72
 222 278 222 278 200 305 c 1,73,74
 181 285 181 285 172 269 c 0,75,76
 151 233 151 233 151 194.5 c 128,-1,77
 151 156 151 156 168 128 c 0,78,79
 180 106 180 106 201 94 c 128,-1,80
 222 82 222 82 250 82 c 0,62,63
EndSplineSet
EndChar

StartChar: quotesingle
Encoding: 39 39 8
Width: 500
GlyphClass: 2
Flags: W
LayerCount: 2
Fore
SplineSet
203 451 m 1,0,1
 201 490 201 490 199 530 c 2,2,-1
 199 539 l 2,3,4
 199 541 199 541 199 543 c 0,5,6
 199 546 199 546 199 549 c 2,7,-1
 198 559 l 2,8,9
 197 596 197 596 196 633 c 2,10,-1
 196 643 l 2,11,12
 196 655 196 655 196 667.5 c 128,-1,13
 196 680 196 680 195 693 c 2,14,-1
 195 703 l 2,15,16
 195 710 195 710 195 718 c 0,17,18
 195 738 195 738 195 757 c 2,19,-1
 195 767 l 2,20,21
 195 769 195 769 195 772 c 2,22,-1
 305 772 l 1,23,24
 305 747 305 747 305 722 c 2,25,-1
 305 712 l 2,26,27
 305 703 305 703 305 693 c 2,28,-1
 304 683 l 1,29,30
 304 620 304 620 302 559 c 2,31,-1
 301 548 l 2,32,33
 301 544 301 544 301 539 c 2,34,-1
 300 529 l 1,35,-1
 300 528 l 2,36,37
 300 526 300 526 300 525 c 2,38,-1
 300 515 l 2,39,40
 299 482 299 482 297 451 c 1,41,-1
 203 451 l 1,0,1
EndSplineSet
EndChar

StartChar: parenleft
Encoding: 40 40 9
Width: 500
GlyphClass: 2
Flags: W
LayerCount: 2
Fore
SplineSet
402 -188 m 1,0,1
 289 -119 289 -119 222 -3 c 0,2,3
 137 144 137 144 136 359 c 2,4,-1
 136 371 l 2,5,6
 137 586 137 586 222 733 c 0,7,8
 289 849 289 849 402 918 c 1,9,-1
 454 841 l 1,10,11
 365 783 365 783 311 690 c 0,12,13
 237 562 237 562 236 371 c 2,14,-1
 236 359 l 2,15,16
 237 168 237 168 311 40 c 0,17,18
 365 -53 365 -53 454 -111 c 1,19,-1
 402 -188 l 1,0,1
EndSplineSet
EndChar

StartChar: parenright
Encoding: 41 41 10
Width: 500
GlyphClass: 2
Flags: W
LayerCount: 2
Fore
SplineSet
98 -188 m 1,0,-1
 46 -111 l 1,1,2
 135 -53 135 -53 189 40 c 0,3,4
 263 168 263 168 264 359 c 2,5,-1
 264 371 l 2,6,7
 263 562 263 562 189 690 c 0,8,9
 135 783 135 783 46 841 c 1,10,-1
 98 918 l 1,11,12
 211 849 211 849 278 733 c 0,13,14
 363 586 363 586 364 371 c 2,15,-1
 364 359 l 2,16,17
 363 144 363 144 278 -3 c 0,18,19
 211 -119 211 -119 98 -188 c 1,0,-1
EndSplineSet
EndChar

StartChar: asterisk
Encoding: 42 42 11
Width: 500
GlyphClass: 2
Flags: W
LayerCount: 2
Fore
SplineSet
167 439 m 1,0,-1
 86 492 l 1,1,-1
 185 616 l 1,2,-1
 35 658 l 1,3,-1
 66 743 l 1,4,-1
 207 690 l 1,5,-1
 200 846 l 1,6,-1
 300 846 l 1,7,-1
 293 690 l 1,8,-1
 434 743 l 1,9,-1
 465 658 l 1,10,-1
 315 616 l 1,11,-1
 414 492 l 1,12,-1
 333 439 l 1,13,-1
 250 566 l 1,14,-1
 167 439 l 1,0,-1
EndSplineSet
Substitution2: "'ss10' Style Set 10 lookup 49 subtable" asterisk.ss10
Substitution2: "'ss11' Style Set 11 lookup 48 subtable" asterisk.ss11
EndChar

StartChar: plus
Encoding: 43 43 12
Width: 500
GlyphClass: 2
Flags: W
AnchorPoint: "Anclaje-5" 440 0 basechar 0
AnchorPoint: "Anclaje-4" 440 530 basechar 0
AnchorPoint: "Anclaje-3" 250 365 basechar 0
AnchorPoint: "Anclaje-2" 250 373 basechar 0
AnchorPoint: "Anclaje-1" 250 155 basechar 0
AnchorPoint: "Anclaje-0" 250 574 basechar 0
LayerCount: 2
Fore
SplineSet
200 155 m 1,0,-1
 200 320 l 1,1,-1
 59 320 l 1,2,-1
 59 410 l 1,3,-1
 200 410 l 1,4,-1
 200 575 l 1,5,-1
 300 575 l 1,6,-1
 300 410 l 1,7,-1
 441 410 l 1,8,-1
 441 320 l 1,9,-1
 300 320 l 1,10,-1
 300 155 l 1,11,-1
 200 155 l 1,0,-1
EndSplineSet
EndChar

StartChar: comma
Encoding: 44 44 13
Width: 500
GlyphClass: 2
Flags: W
LayerCount: 2
Fore
SplineSet
225 -205 m 1,0,-1
 154 -153 l 1,1,2
 181 -119 181 -119 200 -86 c 0,3,4
 223 -47 223 -47 235 -7 c 1,5,6
 216 -5 216 -5 200 4 c 0,7,8
 182 14 182 14 171 33 c 0,9,10
 159 54 159 54 160 83 c 0,11,12
 159 111 159 111 171 132 c 0,13,14
 182 151 182 151 200 161 c 0,15,16
 221 173 221 173 250 173 c 256,17,18
 279 173 279 173 300 161 c 0,19,20
 318 151 318 151 329 132 c 0,21,22
 340 112 340 112 341 82 c 0,23,24
 340 -21 340 -21 281 -124 c 0,25,26
 257 -166 257 -166 225 -205 c 1,0,-1
EndSplineSet
EndChar

StartChar: hyphen
Encoding: 45 45 14
Width: 500
GlyphClass: 2
Flags: W
LayerCount: 2
Fore
SplineSet
59 320 m 1,0,-1
 59 410 l 1,1,-1
 441 410 l 1,2,-1
 441 320 l 1,3,-1
 59 320 l 1,0,-1
EndSplineSet
EndChar

StartChar: period
Encoding: 46 46 15
Width: 500
GlyphClass: 2
Flags: W
LayerCount: 2
Fore
SplineSet
250 -8 m 256,0,1
 221 -8 221 -8 200 4 c 0,2,3
 182 14 182 14 171 33 c 0,4,5
 159 54 159 54 160 83 c 0,6,7
 159 111 159 111 171 132 c 0,8,9
 182 151 182 151 200 161 c 0,10,11
 221 173 221 173 250 173 c 256,12,13
 279 173 279 173 300 161 c 0,14,15
 318 151 318 151 329 132 c 0,16,17
 340 112 340 112 341 83 c 0,18,19
 340 53 340 53 329 33 c 0,20,21
 318 14 318 14 300 4 c 0,22,23
 279 -8 279 -8 250 -8 c 256,0,1
EndSplineSet
EndChar

StartChar: slash
Encoding: 47 47 16
Width: 500
GlyphClass: 2
Flags: W
LayerCount: 2
Fore
SplineSet
53 -168 m 1,0,-1
 345 898 l 1,1,-1
 447 898 l 1,2,-1
 155 -168 l 1,3,-1
 53 -168 l 1,0,-1
EndSplineSet
EndChar

StartChar: zero
Encoding: 48 48 17
Width: 500
GlyphClass: 2
Flags: W
AnchorPoint: "Anclaje-5" 440 0 basechar 0
AnchorPoint: "Anclaje-4" 440 735 basechar 0
AnchorPoint: "Anclaje-3" 250 367 basechar 0
AnchorPoint: "Anclaje-2" 250 382 basechar 0
AnchorPoint: "Anclaje-1" 250 0 basechar 0
AnchorPoint: "Anclaje-0" 250 735 basechar 0
LayerCount: 2
Fore
SplineSet
250 -8 m 256,0,1
 189 -8 189 -8 143 18 c 0,2,3
 100 43 100 43 75 87 c 0,4,5
 44 141 44 141 43 220 c 2,6,-1
 43 515 l 2,7,8
 44 594 44 594 75 648 c 0,9,10
 100 692 100 692 143 717 c 0,11,12
 189 743 189 743 250 743 c 256,13,14
 311 743 311 743 357 717 c 0,15,16
 400 692 400 692 425 648 c 0,17,18
 456 594 456 594 457 515 c 2,19,-1
 457 220 l 2,20,21
 456 141 456 141 425 87 c 0,22,23
 400 43 400 43 357 18 c 0,24,25
 311 -8 311 -8 250 -8 c 256,0,1
250 82 m 256,26,27
 278 82 278 82 300 94 c 0,28,29
 322 108 322 108 336 132 c 0,30,31
 356 166 356 166 357 220 c 2,32,-1
 357 444 l 1,33,-1
 151 163 l 1,34,35
 156 146 156 146 164 132 c 0,36,37
 178 108 178 108 200 94 c 0,38,39
 222 82 222 82 250 82 c 256,26,27
143 291 m 1,40,-1
 349 572 l 1,41,42
 344 589 344 589 336 603 c 0,43,44
 322 627 322 627 300 641 c 0,45,46
 278 653 278 653 250 653 c 256,47,48
 222 653 222 653 200 641 c 0,49,50
 178 627 178 627 164 603 c 0,51,52
 144 569 144 569 143 515 c 2,53,-1
 143 291 l 1,40,-1
EndSplineSet
Substitution2: "'ss11' Style Set 11 lookup 36 subtable" zero.ss11
Substitution2: "'ss09' Style Set 9 lookup 35 subtable" zero.ss09
Substitution2: "'ss10' Style Set 10 lookup 34 subtable" zero.ss10
EndChar

StartChar: one
Encoding: 49 49 18
Width: 500
GlyphClass: 2
Flags: W
AnchorPoint: "Anclaje-5" 440 0 basechar 0
AnchorPoint: "Anclaje-4" 440 735 basechar 0
AnchorPoint: "Anclaje-3" 250 367 basechar 0
AnchorPoint: "Anclaje-2" 250 382 basechar 0
AnchorPoint: "Anclaje-1" 250 0 basechar 0
AnchorPoint: "Anclaje-0" 250 735 basechar 0
LayerCount: 2
Fore
SplineSet
85 0 m 1,0,-1
 85 90 l 1,1,-1
 210 90 l 1,2,-1
 210 620 l 1,3,-1
 106 546 l 1,4,-1
 48 619 l 1,5,-1
 210 735 l 1,6,-1
 310 735 l 1,7,-1
 310 90 l 1,8,-1
 435 90 l 1,9,-1
 435 0 l 1,10,-1
 85 0 l 1,0,-1
EndSplineSet
Substitution2: "Single Substitution lookup 38 subtable" one.cv51
Substitution2: "'ss11' Style Set 11 lookup 37 subtable" one.ss11
EndChar

StartChar: two
Encoding: 50 50 19
Width: 500
GlyphClass: 2
Flags: W
AnchorPoint: "Anclaje-5" 440 0 basechar 0
AnchorPoint: "Anclaje-4" 440 735 basechar 0
AnchorPoint: "Anclaje-3" 250 367 basechar 0
AnchorPoint: "Anclaje-2" 250 382 basechar 0
AnchorPoint: "Anclaje-1" 250 0 basechar 0
AnchorPoint: "Anclaje-0" 250 735 basechar 0
LayerCount: 2
Fore
SplineSet
59 0 m 1,0,-1
 59 1 l 2,1,2
 60 143 60 143 104 219 c 0,3,4
 137 278 137 278 231 357 c 0,5,6
 301 417 301 417 324 458 c 0,7,8
 349 500 349 500 349 543 c 0,9,10
 349 579 349 579 333 607 c 0,11,12
 320 629 320 629 300 641 c 0,13,14
 278 653 278 653 250 653 c 256,15,16
 222 653 222 653 201 641 c 128,-1,17
 180 629 180 629 167 607 c 0,18,19
 155 585 155 585 152 560 c 1,20,-1
 54 580 l 1,21,22
 60 619 60 619 79 652 c 0,23,24
 104 694 104 694 144 717 c 0,25,26
 188 743 188 743 250 743 c 0,27,28
 311 743 311 743 356 717 c 0,29,30
 397 694 397 694 420 653 c 0,31,32
 449 604 449 604 449 543.5 c 128,-1,33
 449 483 449 483 415 424 c 0,34,35
 387 377 387 377 307 305 c 128,-1,36
 227 233 227 233 197 181 c 0,37,38
 176 144 176 144 166 90 c 1,39,-1
 341 90 l 1,40,-1
 341 145 l 1,41,-1
 441 145 l 1,42,-1
 441 0 l 1,43,-1
 59 0 l 1,0,-1
EndSplineSet
EndChar

StartChar: three
Encoding: 51 51 20
Width: 500
GlyphClass: 2
Flags: W
AnchorPoint: "Anclaje-5" 440 0 basechar 0
AnchorPoint: "Anclaje-4" 440 735 basechar 0
AnchorPoint: "Anclaje-3" 250 367 basechar 0
AnchorPoint: "Anclaje-2" 250 382 basechar 0
AnchorPoint: "Anclaje-1" 250 0 basechar 0
AnchorPoint: "Anclaje-0" 250 735 basechar 0
LayerCount: 2
Fore
SplineSet
249 -8 m 0,0,1
 185 -8 185 -8 139 19 c 0,2,3
 97 43 97 43 71 87 c 0,4,5
 54 118 54 118 46 155 c 1,6,-1
 143 179 l 1,7,8
 147 154 147 154 159 133 c 0,9,10
 173 108 173 108 196 95 c 0,11,12
 218 83 218 83 246 82 c 0,13,14
 248 82 248 82 249 82 c 0,15,16
 280 82 280 82 302.5 95 c 128,-1,17
 325 108 325 108 339 132 c 0,18,19
 357 163 357 163 357 203 c 0,20,21
 357 241 357 241 339.5 271.5 c 128,-1,22
 322 302 322 302 291 319 c 0,23,24
 254 341 254 341 179 341 c 1,25,-1
 179 431 l 1,26,27
 248 431 248 431 283 451 c 0,28,29
 311 467 311 467 325 493 c 0,30,31
 341 519 341 519 341 552 c 128,-1,32
 341 585 341 585 326 611 c 0,33,34
 320 621 320 621 312 629 c 0,35,36
 288 653 288 653 250 653 c 0,37,38
 213 653 213 653 190 629 c 0,39,40
 182 622 182 622 175 610 c 0,41,42
 163 589 163 589 160 562 c 1,43,-1
 62 580 l 1,44,45
 68 622 68 622 87 656 c 0,46,47
 111 696 111 696 149 719 c 0,48,49
 191 743 191 743 250 743 c 256,50,51
 309 743 309 743 351 719 c 0,52,53
 391 696 391 696 413 656 c 0,54,55
 441 609 441 609 441 552 c 0,56,57
 441 502 441 502 417.5 461.5 c 128,-1,58
 394 421 394 421 351 396 c 0,59,60
 342 391 342 391 332 387 c 1,61,62
 347 381 347 381 359 374 c 0,63,64
 405 348 405 348 431 302.5 c 128,-1,65
 457 257 457 257 457 202 c 0,66,67
 457 139 457 139 426 87 c 0,68,69
 402 44 402 44 359 19 c 0,70,71
 312 -8 312 -8 249 -8 c 0,0,1
EndSplineSet
Substitution2: "'ss10' Style Set 10 lookup 40 subtable" three.ss10
Substitution2: "'ss11' Style Set 11 lookup 39 subtable" three.ss11
EndChar

StartChar: four
Encoding: 52 52 21
Width: 500
GlyphClass: 2
Flags: W
AnchorPoint: "Anclaje-5" 440 0 basechar 0
AnchorPoint: "Anclaje-4" 440 735 basechar 0
AnchorPoint: "Anclaje-3" 250 367 basechar 0
AnchorPoint: "Anclaje-2" 250 382 basechar 0
AnchorPoint: "Anclaje-1" 250 0 basechar 0
AnchorPoint: "Anclaje-0" 250 735 basechar 0
LayerCount: 2
Fore
SplineSet
239 0 m 1,0,-1
 239 90 l 1,1,-1
 274 90 l 1,2,-1
 274 204 l 1,3,-1
 43 204 l 1,4,-1
 43 294 l 1,5,-1
 251 735 l 1,6,-1
 374 735 l 1,7,-1
 374 294 l 1,8,-1
 441 294 l 1,9,-1
 441 204 l 1,10,-1
 374 204 l 1,11,-1
 374 90 l 1,12,-1
 409 90 l 1,13,-1
 409 0 l 1,14,-1
 239 0 l 1,0,-1
141 294 m 1,15,-1
 274 294 l 1,16,-1
 274 573 l 1,17,-1
 141 294 l 1,15,-1
EndSplineSet
EndChar

StartChar: five
Encoding: 53 53 22
Width: 500
GlyphClass: 2
Flags: W
AnchorPoint: "Anclaje-5" 440 0 basechar 0
AnchorPoint: "Anclaje-4" 440 735 basechar 0
AnchorPoint: "Anclaje-3" 250 367 basechar 0
AnchorPoint: "Anclaje-2" 250 382 basechar 0
AnchorPoint: "Anclaje-1" 250 0 basechar 0
AnchorPoint: "Anclaje-0" 250 735 basechar 0
LayerCount: 2
Fore
SplineSet
251 -8 m 256,0,1
 193 -8 193 -8 150 17 c 128,-1,2
 107 42 107 42 81 88 c 0,3,4
 63 117 63 117 54 155 c 1,5,-1
 148 188 l 1,6,7
 153 158 153 158 167 133 c 0,8,9
 182 107 182 107 205 94 c 0,10,11
 225 82 225 82 251 82 c 256,12,13
 277 82 277 82 296 93 c 0,14,15
 319 106 319 106 333 132 c 0,16,17
 356 171 356 171 357 236 c 0,18,19
 356 301 356 301 333 340 c 0,20,21
 319 365 319 365 298 378 c 0,22,23
 279 388 279 388 255 388 c 0,24,25
 230 388 230 388 211 377 c 0,26,27
 189 365 189 365 174 339 c 0,28,29
 164 322 164 322 158 300 c 1,30,-1
 69 340 l 1,31,-1
 69 735 l 1,32,-1
 430 735 l 1,33,-1
 430 590 l 1,34,-1
 330 590 l 1,35,-1
 330 645 l 1,36,-1
 169 645 l 1,37,-1
 169 461 l 1,38,39
 207 478 207 478 255 478 c 0,40,41
 312 478 312 478 353 454 c 0,42,43
 395 430 395 430 422 384 c 0,44,45
 456 324 456 324 457 235 c 0,46,47
 456 147 456 147 422 88 c 0,48,49
 396 42 396 42 352.5 17 c 128,-1,50
 309 -8 309 -8 251 -8 c 256,0,1
EndSplineSet
EndChar

StartChar: six
Encoding: 54 54 23
Width: 500
GlyphClass: 2
Flags: W
AnchorPoint: "Anclaje-5" 440 0 basechar 0
AnchorPoint: "Anclaje-4" 440 735 basechar 0
AnchorPoint: "Anclaje-3" 250 367 basechar 0
AnchorPoint: "Anclaje-2" 250 382 basechar 0
AnchorPoint: "Anclaje-1" 250 0 basechar 0
AnchorPoint: "Anclaje-0" 250 735 basechar 0
LayerCount: 2
Fore
SplineSet
250 -8 m 256,0,1
 188 -8 188 -8 144 18 c 0,2,3
 101 43 101 43 75 87 c 0,4,5
 44 141 44 141 43 220 c 0,6,7
 44 431 44 431 117 557 c 0,8,9
 170 650 170 650 262 703 c 0,10,11
 295 722 295 722 333 735 c 1,12,-1
 365 650 l 1,13,14
 342 641 342 641 321 629 c 0,15,16
 248 586 248 586 205 512 c 0,17,18
 182 472 182 472 168 422 c 1,19,20
 175 428 175 428 183 432 c 0,21,22
 212 449 212 449 254 449 c 0,23,24
 311 449 311 449 357 423 c 0,25,26
 400 398 400 398 425 354 c 0,27,28
 456 300 456 300 457 221 c 0,29,30
 456 141 456 141 425 87 c 0,31,32
 399 43 399 43 356 18 c 0,33,34
 312 -8 312 -8 250 -8 c 256,0,1
250 82 m 256,35,36
 278 82 278 82 299 94 c 0,37,38
 322 107 322 107 336 132 c 0,39,40
 356 167 356 167 357 220 c 0,41,42
 356 275 356 275 336 310 c 0,43,44
 322 334 322 334 300 347 c 0,45,46
 279 359 279 359 251 359 c 256,47,48
 223 359 223 359 201 346 c 0,49,50
 178 333 178 333 164 308 c 0,51,52
 144 274 144 274 143 221 c 0,53,54
 144 167 144 167 164 132 c 0,55,56
 178 107 178 107 201 94 c 0,57,58
 222 82 222 82 250 82 c 256,35,36
EndSplineSet
EndChar

StartChar: seven
Encoding: 55 55 24
Width: 500
GlyphClass: 2
Flags: W
AnchorPoint: "Anclaje-5" 440 0 basechar 0
AnchorPoint: "Anclaje-4" 440 735 basechar 0
AnchorPoint: "Anclaje-3" 250 367 basechar 0
AnchorPoint: "Anclaje-2" 250 382 basechar 0
AnchorPoint: "Anclaje-1" 250 0 basechar 0
AnchorPoint: "Anclaje-0" 250 735 basechar 0
LayerCount: 2
Fore
SplineSet
113 0 m 1,0,-1
 334 645 l 1,1,-1
 151 645 l 1,2,-1
 151 590 l 1,3,-1
 51 590 l 1,4,-1
 51 735 l 1,5,-1
 441 735 l 1,6,-1
 441 645 l 1,7,-1
 219 0 l 1,8,-1
 113 0 l 1,0,-1
EndSplineSet
EndChar

StartChar: eight
Encoding: 56 56 25
Width: 500
GlyphClass: 2
Flags: W
AnchorPoint: "Anclaje-5" 440 0 basechar 0
AnchorPoint: "Anclaje-4" 440 735 basechar 0
AnchorPoint: "Anclaje-3" 250 367 basechar 0
AnchorPoint: "Anclaje-2" 250 382 basechar 0
AnchorPoint: "Anclaje-1" 250 0 basechar 0
AnchorPoint: "Anclaje-0" 250 735 basechar 0
LayerCount: 2
Fore
SplineSet
250 -8 m 256,0,1
 182 -8 182 -8 134 20 c 0,2,3
 93 43 93 43 69 84 c 0,4,5
 43 129 43 129 43 184 c 0,6,7
 43 237 43 237 71 286 c 0,8,9
 97 331 97 331 167 377 c 1,10,11
 110 418 110 418 88 457 c 0,12,13
 60 506 60 506 60 559 c 0,14,15
 60 613 60 613 85 657 c 0,16,17
 108 696 108 696 146 718 c 0,18,19
 189 743 189 743 250 743 c 256,20,21
 311 743 311 743 354 718 c 0,22,23
 392 696 392 696 415 657 c 0,24,25
 440 613 440 613 440 559 c 0,26,27
 440 506 440 506 412 457 c 0,28,29
 390 418 390 418 333 377 c 1,30,31
 403 331 403 331 429 286 c 0,32,33
 457 237 457 237 457 184 c 0,34,35
 457 129 457 129 431 84 c 0,36,37
 407 43 407 43 366 20 c 0,38,39
 318 -8 318 -8 250 -8 c 256,0,1
250 82 m 256,40,41
 285 82 285 82 309 96 c 0,42,43
 331 108 331 108 343 130 c 0,44,45
 357 153 357 153 357 183 c 0,46,47
 357 215 357 215 339 245 c 0,48,49
 318 282 318 282 250 325 c 1,50,51
 182 282 182 282 161 245 c 0,52,53
 143 215 143 215 143 183 c 0,54,55
 143 153 143 153 157 130 c 0,56,57
 169 108 169 108 191 96 c 0,58,59
 215 82 215 82 250 82 c 256,40,41
250 429 m 1,60,61
 304 464 304 464 323 497 c 0,62,63
 340 528 340 528 340 559 c 0,64,65
 340 589 340 589 327 612 c 0,66,67
 316 631 316 631 297 642 c 128,-1,68
 278 653 278 653 250 653 c 256,69,70
 222 653 222 653 203 642 c 128,-1,71
 184 631 184 631 173 612 c 0,72,73
 160 589 160 589 160 559 c 0,74,75
 160 528 160 528 177 497 c 0,76,77
 196 464 196 464 250 429 c 1,60,61
EndSplineSet
EndChar

StartChar: nine
Encoding: 57 57 26
Width: 500
GlyphClass: 2
Flags: W
AnchorPoint: "Anclaje-5" 440 0 basechar 0
AnchorPoint: "Anclaje-4" 440 735 basechar 0
AnchorPoint: "Anclaje-3" 250 367 basechar 0
AnchorPoint: "Anclaje-2" 250 382 basechar 0
AnchorPoint: "Anclaje-1" 250 0 basechar 0
AnchorPoint: "Anclaje-0" 250 735 basechar 0
LayerCount: 2
Fore
SplineSet
250 -8 m 0,0,1
 194 -8 194 -8 153 16 c 0,2,3
 109 41 109 41 81 89 c 0,4,5
 64 119 64 119 54 155 c 1,6,-1
 144 195 l 1,7,8
 151 161 151 161 166 135 c 0,9,10
 182 107 182 107 205 93 c 0,11,12
 225 82 225 82 250 82 c 0,13,14
 273 82 273 82 292 93 c 0,15,16
 314 106 314 106 329 132 c 0,17,18
 356 179 356 179 357 257 c 2,19,-1
 357 311 l 1,20,21
 340 289 340 289 317 276 c 0,22,23
 288 259 288 259 246 259 c 0,24,25
 189 259 189 259 143 285 c 0,26,27
 100 310 100 310 75 354 c 0,28,29
 44 409 44 409 43 487 c 2,30,-1
 43 515 l 2,31,32
 44 594 44 594 75 648 c 0,33,34
 100 692 100 692 143 717 c 0,35,36
 189 743 189 743 249 743 c 256,37,38
 309 743 309 743 352.5 717.5 c 128,-1,39
 396 692 396 692 422 647 c 0,40,41
 456 589 456 589 457 501 c 2,42,-1
 457 257 l 2,43,44
 456 156 456 156 418 89 c 0,45,46
 390 41 390 41 346 16 c 0,47,48
 305 -8 305 -8 250 -8 c 0,0,1
249 349 m 256,49,50
 277 349 277 349 299 362 c 0,51,52
 322 375 322 375 337 400 c 0,53,54
 356 435 356 435 357 487 c 2,55,-1
 357 501 l 2,56,57
 356 563 356 563 334 602 c 0,58,59
 319 629 319 629 296 641 c 0,60,61
 276 653 276 653 249 653 c 256,62,63
 222 653 222 653 200 641 c 0,64,65
 178 627 178 627 164 603 c 0,66,67
 144 569 144 569 143 515 c 2,68,-1
 143 487 l 2,69,70
 144 433 144 433 164 399 c 0,71,72
 178 374 178 374 200 361 c 0,73,74
 221 349 221 349 249 349 c 256,49,50
EndSplineSet
EndChar

StartChar: colon
Encoding: 58 58 27
Width: 500
GlyphClass: 2
Flags: W
LayerCount: 2
Fore
SplineSet
250 357 m 256,0,1
 221 357 221 357 200 369 c 0,2,3
 182 379 182 379 171 398 c 0,4,5
 159 419 159 419 160 448 c 0,6,7
 159 476 159 476 171 497 c 0,8,9
 182 516 182 516 200 526 c 0,10,11
 221 538 221 538 250 538 c 256,12,13
 279 538 279 538 300 526 c 0,14,15
 318 516 318 516 329 497 c 0,16,17
 340 477 340 477 341 448 c 0,18,19
 340 418 340 418 329 398 c 0,20,21
 318 379 318 379 300 369 c 0,22,23
 279 357 279 357 250 357 c 256,0,1
250 -8 m 256,24,25
 221 -8 221 -8 200 4 c 0,26,27
 182 14 182 14 171 33 c 0,28,29
 159 54 159 54 160 83 c 0,30,31
 159 111 159 111 171 132 c 0,32,33
 182 151 182 151 200 161 c 0,34,35
 221 173 221 173 250 173 c 256,36,37
 279 173 279 173 300 161 c 0,38,39
 318 151 318 151 329 132 c 0,40,41
 340 112 340 112 341 83 c 0,42,43
 340 53 340 53 329 33 c 0,44,45
 318 14 318 14 300 4 c 0,46,47
 279 -8 279 -8 250 -8 c 256,24,25
EndSplineSet
EndChar

StartChar: semicolon
Encoding: 59 59 28
Width: 500
GlyphClass: 2
Flags: W
LayerCount: 2
Fore
SplineSet
250 357 m 256,0,1
 221 357 221 357 200 369 c 0,2,3
 182 379 182 379 171 398 c 0,4,5
 159 419 159 419 160 448 c 0,6,7
 159 476 159 476 171 497 c 0,8,9
 182 516 182 516 200 526 c 0,10,11
 221 538 221 538 250 538 c 256,12,13
 279 538 279 538 300 526 c 0,14,15
 318 516 318 516 329 497 c 0,16,17
 340 477 340 477 341 448 c 0,18,19
 340 418 340 418 329 398 c 0,20,21
 318 379 318 379 300 369 c 0,22,23
 279 357 279 357 250 357 c 256,0,1
225 -205 m 1,24,-1
 154 -153 l 1,25,26
 181 -119 181 -119 200 -86 c 0,27,28
 223 -47 223 -47 235 -7 c 1,29,30
 216 -5 216 -5 200 4 c 0,31,32
 182 14 182 14 171 33 c 0,33,34
 159 54 159 54 160 83 c 0,35,36
 159 111 159 111 171 132 c 0,37,38
 182 151 182 151 200 161 c 0,39,40
 221 173 221 173 250 173 c 256,41,42
 279 173 279 173 300 161 c 0,43,44
 318 151 318 151 329 132 c 0,45,46
 340 112 340 112 341 82 c 0,47,48
 340 -21 340 -21 281 -124 c 0,49,50
 257 -166 257 -166 225 -205 c 1,24,-1
EndSplineSet
EndChar

StartChar: less
Encoding: 60 60 29
Width: 500
GlyphClass: 2
Flags: W
AnchorPoint: "Anclaje-5" 440 0 basechar 0
AnchorPoint: "Anclaje-4" 440 530 basechar 0
AnchorPoint: "Anclaje-3" 250 365 basechar 0
AnchorPoint: "Anclaje-2" 250 373 basechar 0
AnchorPoint: "Anclaje-1" 250 155 basechar 0
AnchorPoint: "Anclaje-0" 250 574 basechar 0
LayerCount: 2
Fore
SplineSet
416 113 m 1,0,-1
 59 314 l 1,1,-1
 59 416 l 1,2,-1
 416 617 l 1,3,-1
 465 539 l 1,4,-1
 152 365 l 1,5,-1
 465 191 l 1,6,-1
 416 113 l 1,0,-1
EndSplineSet
EndChar

StartChar: equal
Encoding: 61 61 30
Width: 500
GlyphClass: 2
Flags: W
AnchorPoint: "Anclaje-5" 440 0 basechar 0
AnchorPoint: "Anclaje-4" 440 530 basechar 0
AnchorPoint: "Anclaje-3" 250 365 basechar 0
AnchorPoint: "Anclaje-2" 250 373 basechar 0
AnchorPoint: "Anclaje-1" 250 155 basechar 0
AnchorPoint: "Anclaje-0" 250 574 basechar 0
LayerCount: 2
Fore
SplineSet
59 427 m 1,0,-1
 59 516 l 1,1,-1
 441 516 l 1,2,-1
 441 427 l 1,3,-1
 59 427 l 1,0,-1
59 214 m 1,4,-1
 59 303 l 1,5,-1
 441 303 l 1,6,-1
 441 214 l 1,7,-1
 59 214 l 1,4,-1
EndSplineSet
EndChar

StartChar: greater
Encoding: 62 62 31
Width: 500
GlyphClass: 2
Flags: W
AnchorPoint: "Anclaje-5" 440 0 basechar 0
AnchorPoint: "Anclaje-4" 440 530 basechar 0
AnchorPoint: "Anclaje-3" 250 365 basechar 0
AnchorPoint: "Anclaje-2" 250 373 basechar 0
AnchorPoint: "Anclaje-1" 250 155 basechar 0
AnchorPoint: "Anclaje-0" 250 574 basechar 0
LayerCount: 2
Fore
SplineSet
84 113 m 1,0,-1
 35 191 l 1,1,-1
 348 365 l 1,2,-1
 35 539 l 1,3,-1
 84 617 l 1,4,-1
 441 416 l 1,5,-1
 441 314 l 1,6,-1
 84 113 l 1,0,-1
EndSplineSet
EndChar

StartChar: question
Encoding: 63 63 32
Width: 500
GlyphClass: 2
Flags: W
LayerCount: 2
Fore
SplineSet
300 221 m 1,0,-1
 200 221 l 1,1,2
 200 307 200 307 231 362 c 0,3,4
 243 381 243 381 270 417 c 0,5,6
 273 422 273 422 275 424 c 0,7,8
 305 461 305 461 317 482 c 0,9,10
 341 523 341 523 341 561 c 0,11,12
 341 589 341 589 328 611 c 0,13,14
 318 630 318 630 298 641 c 0,15,16
 277 653 277 653 247 653 c 0,17,18
 214 653 214 653 192 640 c 0,19,20
 173 629 173 629 163 611.5 c 128,-1,21
 153 594 153 594 153 574 c 0,22,23
 153 572 153 572 153 568 c 2,24,-1
 153 566 l 1,25,-1
 54 581 l 1,26,27
 55 622 55 622 75 658 c 0,28,29
 97 695 97 695 134 716 c 0,30,31
 180 743 180 743 247 743 c 0,32,33
 310 743 310 743 354 717 c 0,34,35
 393 695 393 695 416 656 c 0,36,37
 441 612 441 612 441 559 c 0,38,39
 441 500 441 500 408 443 c 0,40,41
 394 419 394 419 362 379 c 0,42,43
 334 343 334 343 324 325 c 0,44,45
 300 283 300 283 300 221 c 1,0,-1
250 -8 m 256,46,47
 225 -8 225 -8 207 2 c 0,48,49
 192 11 192 11 182 27 c 0,50,51
 172 45 172 45 172 70 c 128,-1,52
 172 95 172 95 182 113 c 0,53,54
 192 129 192 129 207 138 c 0,55,56
 225 148 225 148 250 148 c 256,57,58
 275 148 275 148 293 138 c 0,59,60
 308 129 308 129 318 113 c 0,61,62
 328 95 328 95 328 70 c 128,-1,63
 328 45 328 45 318 27 c 0,64,65
 308 11 308 11 293 2 c 0,66,67
 275 -8 275 -8 250 -8 c 256,46,47
EndSplineSet
EndChar

StartChar: at
Encoding: 64 64 33
Width: 500
GlyphClass: 2
Flags: W
LayerCount: 2
Fore
SplineSet
327 -104 m 0,0,1
 307 -104 307 -104 294 -97 c 0,2,3
 278 -87 278 -87 266 -67 c 0,4,5
 253 -44 253 -44 247 -11 c 1,6,7
 243 -22 243 -22 238 -31 c 0,8,9
 226 -52 226 -52 209 -62 c 0,10,11
 196 -69 196 -69 175 -69 c 0,12,13
 146 -69 146 -69 121 -55 c 128,-1,14
 96 -41 96 -41 81 -14 c 0,15,16
 60 23 60 23 59 78 c 2,17,-1
 59 375 l 2,18,19
 60 430 60 430 81 466 c 0,20,21
 96 493 96 493 121 507.5 c 128,-1,22
 146 522 146 522 175 522 c 0,23,24
 196 522 196 522 209 514 c 0,25,26
 224 506 224 506 236 487 c 1,27,-1
 243 514 l 1,28,-1
 298 514 l 1,29,-1
 298 43 l 2,30,31
 297 -1 297 -1 313 -17 c 0,32,33
 319 -22 319 -22 326 -22 c 0,34,35
 332 -22 332 -22 335 -18 c 0,36,37
 350 -4 350 -4 349 43 c 2,38,-1
 349 588 l 2,39,40
 350 636 350 636 331 669 c 0,41,42
 317 693 317 693 295 705 c 0,43,44
 274 717 274 717 246 717 c 0,45,46
 217 717 217 717 196 705 c 0,47,48
 174 692 174 692 160 668 c 0,49,50
 147 645 147 645 143 617 c 1,51,-1
 54 636 l 1,52,53
 61 677 61 677 80 710 c 0,54,55
 104 751 104 751 144 775 c 0,56,57
 187 799 187 799 246 799 c 256,58,59
 305 799 305 799 348 775 c 0,60,61
 387 752 387 752 412 710 c 0,62,63
 440 660 440 660 441 588 c 2,64,-1
 441 43 l 2,65,66
 440 -13 440 -13 419 -49 c 0,67,68
 404 -76 404 -76 379.5 -90 c 128,-1,69
 355 -104 355 -104 327 -104 c 0,0,1
178 13 m 0,70,71
 186 13 186 13 191 18 c 0,72,73
 205 32 205 32 206 72 c 2,74,-1
 206 375 l 2,75,76
 207 419 207 419 191 435 c 0,77,78
 186 440 186 440 178 440 c 0,79,80
 171 440 171 440 166 435 c 0,81,82
 150 419 150 419 151 375 c 2,83,-1
 151 78 l 2,84,85
 150 34 150 34 166 18 c 0,86,87
 171 13 171 13 178 13 c 0,70,71
EndSplineSet
Substitution2: "'ss05' Estilo 5 lookup 45 subtable" at.ss05
Substitution2: "'ss07' Style Set 7 lookup 44 subtable" at.ss07
Substitution2: "'ss11' Style Set 11 lookup 43 subtable" at.ss11
EndChar

StartChar: A
Encoding: 65 65 34
Width: 500
GlyphClass: 2
Flags: W
AnchorPoint: "Anclaje-6" 398 0 basechar 0
AnchorPoint: "Anclaje-5" 440 0 basechar 0
AnchorPoint: "Anclaje-4" 440 735 basechar 0
AnchorPoint: "Anclaje-3" 250 367 basechar 0
AnchorPoint: "Anclaje-2" 250 382 basechar 0
AnchorPoint: "Anclaje-1" 250 0 basechar 0
AnchorPoint: "Anclaje-0" 250 735 basechar 0
LayerCount: 2
Fore
SplineSet
24 0 m 1,0,-1
 24 90 l 1,1,-1
 60 90 l 1,2,3
 69 214 69 214 190 735 c 1,4,-1
 310 735 l 1,5,6
 431 214 431 214 440 90 c 1,7,-1
 476 90 l 1,8,-1
 476 0 l 1,9,-1
 306 0 l 1,10,-1
 306 90 l 1,11,-1
 340 90 l 1,12,13
 338 120 338 120 330 175 c 1,14,-1
 170 175 l 1,15,16
 162 120 162 120 160 90 c 1,17,-1
 194 90 l 1,18,-1
 194 0 l 1,19,-1
 24 0 l 1,0,-1
314 265 m 1,20,21
 292 390 292 390 250 586 c 1,22,23
 208 390 208 390 186 265 c 1,24,-1
 314 265 l 1,20,21
EndSplineSet
EndChar

StartChar: B
Encoding: 66 66 35
Width: 500
GlyphClass: 2
Flags: W
AnchorPoint: "Anclaje-5" 440 0 basechar 0
AnchorPoint: "Anclaje-4" 440 735 basechar 0
AnchorPoint: "Anclaje-3" 250 367 basechar 0
AnchorPoint: "Anclaje-2" 250 382 basechar 0
AnchorPoint: "Anclaje-1" 250 0 basechar 0
AnchorPoint: "Anclaje-0" 250 735 basechar 0
LayerCount: 2
Fore
SplineSet
24 0 m 1,0,-1
 24 90 l 1,1,-1
 59 90 l 1,2,-1
 59 645 l 1,3,-1
 24 645 l 1,4,-1
 24 735 l 1,5,-1
 232 735 l 2,6,7
 294 735 294 735 338 709 c 0,8,9
 378 686 378 686 400 647 c 0,10,11
 427 601 427 601 427 538 c 0,12,13
 427 484 427 484 405 445 c 0,14,15
 384 409 384 409 346 387 c 0,16,17
 345 386 345 386 343 385 c 1,18,19
 356 380 356 380 368 373 c 0,20,21
 411 348 411 348 433 308 c 0,22,23
 456 269 456 269 457 212 c 0,24,25
 456 147 456 147 429 100 c 0,26,27
 404 56 404 56 359 30 c 0,28,29
 307 0 307 0 232 0 c 2,30,-1
 24 0 l 1,0,-1
159 427 m 1,31,-1
 232 427 l 2,32,33
 259 427 259 427 280 439 c 0,34,35
 299 450 299 450 312 471 c 0,36,37
 327 498 327 498 327 536.5 c 128,-1,38
 327 575 327 575 312 601 c 0,39,40
 299 622 299 622 279.5 633.5 c 128,-1,41
 260 645 260 645 232 645 c 2,42,-1
 159 645 l 1,43,-1
 159 427 l 1,31,-1
159 90 m 1,44,-1
 232 90 l 2,45,46
 272 90 272 90 301 107 c 0,47,48
 326 121 326 121 341 146 c 0,49,50
 356 174 356 174 357 213 c 0,51,52
 356 253 356 253 340 281 c 0,53,54
 326 306 326 306 301 321 c 0,55,56
 272 337 272 337 232 337 c 2,57,-1
 159 337 l 1,58,-1
 159 90 l 1,44,-1
EndSplineSet
EndChar

StartChar: C
Encoding: 67 67 36
Width: 500
GlyphClass: 2
Flags: W
AnchorPoint: "Anclaje-5" 440 0 basechar 0
AnchorPoint: "Anclaje-4" 440 735 basechar 0
AnchorPoint: "Anclaje-3" 250 367 basechar 0
AnchorPoint: "Anclaje-2" 250 382 basechar 0
AnchorPoint: "Anclaje-1" 250 0 basechar 0
AnchorPoint: "Anclaje-0" 250 735 basechar 0
LayerCount: 2
Fore
SplineSet
246 -8 m 0,0,1
 239 -8 239 -8 232 -8 c 0,2,3
 178 -5 178 -5 138 18 c 0,4,5
 96 42 96 42 72 84 c 0,6,7
 44 133 44 133 43 203 c 2,8,-1
 43 532 l 2,9,10
 44 602 44 602 72 651 c 0,11,12
 96 693 96 693 138 717 c 0,13,14
 183 743 183 743 246 743 c 0,15,16
 310 743 310 743 355 717 c 0,17,18
 396 693 396 693 421 651 c 0,19,20
 439 619 439 619 446 580 c 1,21,-1
 348 559 l 1,22,23
 345 584 345 584 333 605 c 0,24,25
 320 628 320 628 298 640.5 c 128,-1,26
 276 653 276 653 246 653 c 0,27,28
 217 653 217 653 195 640.5 c 128,-1,29
 173 628 173 628 161 605 c 0,30,31
 144 576 144 576 143 532 c 2,32,-1
 143 203 l 2,33,34
 144 159 144 159 161 130 c 0,35,36
 173 107 173 107 195 94.5 c 128,-1,37
 217 82 217 82 246 82 c 0,38,39
 276 82 276 82 298 94.5 c 128,-1,40
 320 107 320 107 333 130 c 0,41,42
 345 151 345 151 348 176 c 1,43,-1
 446 155 l 1,44,45
 439 116 439 116 421 84 c 0,46,47
 396 42 396 42 355 18 c 0,48,49
 310 -8 310 -8 246 -8 c 0,0,1
EndSplineSet
EndChar

StartChar: D
Encoding: 68 68 37
Width: 500
GlyphClass: 2
Flags: W
AnchorPoint: "Anclaje-5" 440 0 basechar 0
AnchorPoint: "Anclaje-4" 440 735 basechar 0
AnchorPoint: "Anclaje-3" 250 367 basechar 0
AnchorPoint: "Anclaje-2" 250 382 basechar 0
AnchorPoint: "Anclaje-1" 250 0 basechar 0
AnchorPoint: "Anclaje-0" 250 735 basechar 0
LayerCount: 2
Fore
SplineSet
24 0 m 1,0,-1
 24 90 l 1,1,-1
 59 90 l 1,2,-1
 59 645 l 1,3,-1
 24 645 l 1,4,-1
 24 735 l 1,5,-1
 217 735 l 2,6,7
 287 735 287 735 339 705 c 0,8,9
 388 676 388 676 418 624 c 0,10,11
 456 558 456 558 457 461 c 2,12,-1
 457 274 l 2,13,14
 456 177 456 177 418 111 c 0,15,16
 388 59 388 59 339 30 c 0,17,18
 287 0 287 0 217 0 c 2,19,-1
 24 0 l 1,0,-1
159 90 m 1,20,-1
 217 90 l 2,21,22
 253 90 253 90 281.5 106.5 c 128,-1,23
 310 123 310 123 330 156 c 0,24,25
 356 203 356 203 357 274 c 2,26,-1
 357 461 l 2,27,28
 356 532 356 532 330 579 c 0,29,30
 310 612 310 612 281.5 628.5 c 128,-1,31
 253 645 253 645 217 645 c 2,32,-1
 159 645 l 1,33,-1
 159 90 l 1,20,-1
EndSplineSet
EndChar

StartChar: E
Encoding: 69 69 38
Width: 500
GlyphClass: 2
Flags: W
AnchorPoint: "Anclaje-5" 440 0 basechar 0
AnchorPoint: "Anclaje-4" 440 735 basechar 0
AnchorPoint: "Anclaje-3" 250 367 basechar 0
AnchorPoint: "Anclaje-2" 250 382 basechar 0
AnchorPoint: "Anclaje-1" 250 0 basechar 0
AnchorPoint: "Anclaje-0" 250 735 basechar 0
LayerCount: 2
Fore
SplineSet
54 0 m 1,0,-1
 54 90 l 1,1,-1
 89 90 l 1,2,-1
 89 645 l 1,3,-1
 54 645 l 1,4,-1
 54 735 l 1,5,-1
 441 735 l 1,6,-1
 441 590 l 1,7,-1
 341 590 l 1,8,-1
 341 645 l 1,9,-1
 189 645 l 1,10,-1
 189 427 l 1,11,-1
 361 427 l 1,12,-1
 361 337 l 1,13,-1
 189 337 l 1,14,-1
 189 90 l 1,15,-1
 341 90 l 1,16,-1
 341 145 l 1,17,-1
 441 145 l 1,18,-1
 441 0 l 1,19,-1
 54 0 l 1,0,-1
EndSplineSet
EndChar

StartChar: F
Encoding: 70 70 39
Width: 500
GlyphClass: 2
Flags: W
AnchorPoint: "Anclaje-5" 440 0 basechar 0
AnchorPoint: "Anclaje-4" 440 735 basechar 0
AnchorPoint: "Anclaje-3" 250 367 basechar 0
AnchorPoint: "Anclaje-2" 250 382 basechar 0
AnchorPoint: "Anclaje-1" 250 0 basechar 0
AnchorPoint: "Anclaje-0" 250 735 basechar 0
LayerCount: 2
Fore
SplineSet
54 0 m 1,0,-1
 54 90 l 1,1,-1
 89 90 l 1,2,-1
 89 645 l 1,3,-1
 54 645 l 1,4,-1
 54 735 l 1,5,-1
 441 735 l 1,6,-1
 441 590 l 1,7,-1
 341 590 l 1,8,-1
 341 645 l 1,9,-1
 189 645 l 1,10,-1
 189 427 l 1,11,-1
 361 427 l 1,12,-1
 361 337 l 1,13,-1
 189 337 l 1,14,-1
 189 90 l 1,15,-1
 224 90 l 1,16,-1
 224 0 l 1,17,-1
 54 0 l 1,0,-1
EndSplineSet
EndChar

StartChar: G
Encoding: 71 71 40
Width: 500
GlyphClass: 2
Flags: W
AnchorPoint: "Anclaje-5" 440 0 basechar 0
AnchorPoint: "Anclaje-4" 440 735 basechar 0
AnchorPoint: "Anclaje-3" 250 367 basechar 0
AnchorPoint: "Anclaje-2" 250 382 basechar 0
AnchorPoint: "Anclaje-1" 250 0 basechar 0
AnchorPoint: "Anclaje-0" 250 735 basechar 0
LayerCount: 2
Fore
SplineSet
249 -8 m 0,0,1
 185 -8 185 -8 138 19 c 0,2,3
 96 43 96 43 72 85 c 0,4,5
 44 134 44 134 43 203 c 2,6,-1
 43 532 l 2,7,8
 44 602 44 602 72 651 c 0,9,10
 96 693 96 693 138 717 c 0,11,12
 183 743 183 743 246 743 c 0,13,14
 310 743 310 743 355 717 c 0,15,16
 396 693 396 693 421 651 c 0,17,18
 439 619 439 619 446 580 c 1,19,-1
 348 559 l 1,20,21
 345 584 345 584 333 605 c 0,22,23
 320 628 320 628 298 640.5 c 128,-1,24
 276 653 276 653 246 653 c 0,25,26
 217 653 217 653 195 640.5 c 128,-1,27
 173 628 173 628 161 605 c 0,28,29
 144 576 144 576 143 532 c 2,30,-1
 143 203 l 2,31,32
 144 160 144 160 160 131 c 0,33,34
 174 108 174 108 196.5 95 c 128,-1,35
 219 82 219 82 248 82 c 0,36,37
 273 82 273 82 291 92 c 0,38,39
 310 103 310 103 323 125 c 0,40,41
 340 156 340 156 341 203 c 2,42,-1
 341 315 l 1,43,-1
 250 315 l 1,44,-1
 250 405 l 1,45,-1
 441 405 l 1,46,-1
 441 203 l 2,47,48
 440 130 440 130 411 80 c 0,49,50
 388 39 388 39 348 16 c 0,51,52
 327 4 327 4 302.5 -2 c 128,-1,53
 278 -8 278 -8 249 -8 c 0,0,1
EndSplineSet
EndChar

StartChar: H
Encoding: 72 72 41
Width: 500
GlyphClass: 2
Flags: W
AnchorPoint: "Anclaje-5" 440 0 basechar 0
AnchorPoint: "Anclaje-4" 440 735 basechar 0
AnchorPoint: "Anclaje-3" 250 367 basechar 0
AnchorPoint: "Anclaje-2" 250 382 basechar 0
AnchorPoint: "Anclaje-1" 250 0 basechar 0
AnchorPoint: "Anclaje-0" 250 735 basechar 0
LayerCount: 2
Fore
SplineSet
24 0 m 1,0,-1
 24 90 l 1,1,-1
 59 90 l 1,2,-1
 59 645 l 1,3,-1
 24 645 l 1,4,-1
 24 735 l 1,5,-1
 194 735 l 1,6,-1
 194 645 l 1,7,-1
 159 645 l 1,8,-1
 159 431 l 1,9,-1
 341 431 l 1,10,-1
 341 645 l 1,11,-1
 306 645 l 1,12,-1
 306 735 l 1,13,-1
 476 735 l 1,14,-1
 476 645 l 1,15,-1
 441 645 l 1,16,-1
 441 90 l 1,17,-1
 476 90 l 1,18,-1
 476 0 l 1,19,-1
 306 0 l 1,20,-1
 306 90 l 1,21,-1
 341 90 l 1,22,-1
 341 341 l 1,23,-1
 159 341 l 1,24,-1
 159 90 l 1,25,-1
 194 90 l 1,26,-1
 194 0 l 1,27,-1
 24 0 l 1,0,-1
EndSplineSet
EndChar

StartChar: I
Encoding: 73 73 42
Width: 500
GlyphClass: 2
Flags: W
AnchorPoint: "Anclaje-5" 440 0 basechar 0
AnchorPoint: "Anclaje-4" 440 735 basechar 0
AnchorPoint: "Anclaje-3" 250 367 basechar 0
AnchorPoint: "Anclaje-2" 250 382 basechar 0
AnchorPoint: "Anclaje-1" 250 0 basechar 0
AnchorPoint: "Anclaje-0" 250 735 basechar 0
LayerCount: 2
Fore
SplineSet
110 0 m 1,0,-1
 110 90 l 1,1,-1
 200 90 l 1,2,-1
 200 645 l 1,3,-1
 110 645 l 1,4,-1
 110 735 l 1,5,-1
 390 735 l 1,6,-1
 390 645 l 1,7,-1
 300 645 l 1,8,-1
 300 90 l 1,9,-1
 390 90 l 1,10,-1
 390 0 l 1,11,-1
 110 0 l 1,0,-1
EndSplineSet
EndChar

StartChar: J
Encoding: 74 74 43
Width: 500
GlyphClass: 2
Flags: W
AnchorPoint: "Anclaje-5" 440 0 basechar 0
AnchorPoint: "Anclaje-4" 440 735 basechar 0
AnchorPoint: "Anclaje-3" 250 367 basechar 0
AnchorPoint: "Anclaje-2" 336 382 basechar 0
AnchorPoint: "Anclaje-1" 250 0 basechar 0
AnchorPoint: "Anclaje-0" 336 735 basechar 0
LayerCount: 2
Fore
SplineSet
224 -8 m 256,0,1
 169 -8 169 -8 128 15 c 0,2,3
 89 38 89 38 66 79 c 0,4,5
 45 113 45 113 40 155 c 1,6,-1
 136 177 l 1,7,8
 140 147 140 147 153 124 c 0,9,10
 166 103 166 103 184 92 c 0,11,12
 202 82 202 82 224 82 c 256,13,14
 246 82 246 82 262 92 c 0,15,16
 281 102 281 102 293 123 c 0,17,18
 311 155 311 155 311 203 c 2,19,-1
 311 645 l 1,20,-1
 186 645 l 1,21,-1
 186 735 l 1,22,-1
 411 735 l 1,23,-1
 411 203 l 2,24,25
 411 130 411 130 382 78 c 0,26,27
 358 38 358 38 319 15 c 0,28,29
 279 -8 279 -8 224 -8 c 256,0,1
EndSplineSet
EndChar

StartChar: K
Encoding: 75 75 44
Width: 500
GlyphClass: 2
Flags: W
AnchorPoint: "Anclaje-5" 440 0 basechar 0
AnchorPoint: "Anclaje-4" 440 735 basechar 0
AnchorPoint: "Anclaje-3" 250 367 basechar 0
AnchorPoint: "Anclaje-2" 250 382 basechar 0
AnchorPoint: "Anclaje-1" 250 0 basechar 0
AnchorPoint: "Anclaje-0" 250 735 basechar 0
LayerCount: 2
Fore
SplineSet
24 0 m 1,0,-1
 24 90 l 1,1,-1
 59 90 l 1,2,-1
 59 645 l 1,3,-1
 24 645 l 1,4,-1
 24 735 l 1,5,-1
 194 735 l 1,6,-1
 194 645 l 1,7,-1
 159 645 l 1,8,-1
 159 423 l 1,9,10
 216 516 216 516 248 570 c 0,11,12
 325 705 325 705 326 735 c 1,13,-1
 366 735 l 1,14,-1
 476 735 l 1,15,-1
 476 645 l 1,16,-1
 404 645 l 1,17,18
 395 629 395 629 384 609 c 0,19,20
 351 554 351 554 289 455 c 1,21,22
 389 206 389 206 427 90 c 1,23,-1
 476 90 l 1,24,-1
 476 0 l 1,25,-1
 391 0 l 1,26,-1
 349 0 l 1,27,28
 348 50 348 50 228 361 c 1,29,30
 196 311 196 311 159 254 c 1,31,-1
 159 90 l 1,32,-1
 194 90 l 1,33,-1
 194 0 l 1,34,-1
 24 0 l 1,0,-1
EndSplineSet
EndChar

StartChar: L
Encoding: 76 76 45
Width: 500
GlyphClass: 2
Flags: W
AnchorPoint: "Anclaje-5" 440 0 basechar 0
AnchorPoint: "Anclaje-4" 440 735 basechar 0
AnchorPoint: "Anclaje-3" 250 367 basechar 0
AnchorPoint: "Anclaje-2" 250 382 basechar 0
AnchorPoint: "Anclaje-1" 250 0 basechar 0
AnchorPoint: "Anclaje-0" 250 735 basechar 0
LayerCount: 2
Fore
SplineSet
54 0 m 1,0,-1
 54 90 l 1,1,-1
 89 90 l 1,2,-1
 89 645 l 1,3,-1
 54 645 l 1,4,-1
 54 735 l 1,5,-1
 224 735 l 1,6,-1
 224 645 l 1,7,-1
 189 645 l 1,8,-1
 189 90 l 1,9,-1
 357 90 l 1,10,-1
 357 145 l 1,11,-1
 457 145 l 1,12,-1
 457 0 l 1,13,-1
 54 0 l 1,0,-1
EndSplineSet
EndChar

StartChar: M
Encoding: 77 77 46
Width: 500
GlyphClass: 2
Flags: W
AnchorPoint: "Anclaje-5" 440 0 basechar 0
AnchorPoint: "Anclaje-4" 440 735 basechar 0
AnchorPoint: "Anclaje-3" 250 367 basechar 0
AnchorPoint: "Anclaje-2" 250 382 basechar 0
AnchorPoint: "Anclaje-1" 250 0 basechar 0
AnchorPoint: "Anclaje-0" 250 735 basechar 0
LayerCount: 2
Fore
SplineSet
24 0 m 1,0,-1
 24 90 l 1,1,-1
 59 90 l 1,2,-1
 59 645 l 1,3,-1
 24 645 l 1,4,-1
 24 735 l 1,5,-1
 152 735 l 1,6,-1
 250 347 l 1,7,-1
 348 735 l 1,8,-1
 476 735 l 1,9,-1
 476 645 l 1,10,-1
 441 645 l 1,11,-1
 441 90 l 1,12,-1
 476 90 l 1,13,-1
 476 0 l 1,14,-1
 306 0 l 1,15,-1
 306 90 l 1,16,-1
 341 90 l 1,17,-1
 341 147 l 2,18,19
 340 285 340 285 359 441 c 0,20,21
 367 509 367 509 371 573 c 1,22,-1
 282 221 l 1,23,-1
 218 221 l 1,24,-1
 129 573 l 1,25,26
 133 509 133 509 141 441 c 0,27,28
 160 285 160 285 159 147 c 2,29,-1
 159 90 l 1,30,-1
 194 90 l 1,31,-1
 194 0 l 1,32,-1
 24 0 l 1,0,-1
EndSplineSet
EndChar

StartChar: N
Encoding: 78 78 47
Width: 500
GlyphClass: 2
Flags: W
AnchorPoint: "Anclaje-5" 440 0 basechar 0
AnchorPoint: "Anclaje-4" 440 735 basechar 0
AnchorPoint: "Anclaje-3" 250 367 basechar 0
AnchorPoint: "Anclaje-2" 250 382 basechar 0
AnchorPoint: "Anclaje-1" 250 0 basechar 0
AnchorPoint: "Anclaje-0" 250 735 basechar 0
LayerCount: 2
Fore
SplineSet
24 0 m 1,0,-1
 24 90 l 1,1,-1
 59 90 l 1,2,-1
 59 645 l 1,3,-1
 24 645 l 1,4,-1
 24 735 l 1,5,-1
 175 735 l 1,6,-1
 356 158 l 1,7,8
 354 188 354 188 351 221 c 0,9,10
 340 338 340 338 341 441 c 2,11,-1
 341 645 l 1,12,-1
 306 645 l 1,13,-1
 306 735 l 1,14,-1
 476 735 l 1,15,-1
 476 645 l 1,16,-1
 441 645 l 1,17,-1
 441 0 l 1,18,-1
 325 0 l 1,19,-1
 144 577 l 1,20,21
 146 547 146 547 149 514 c 0,22,23
 160 397 160 397 159 294 c 2,24,-1
 159 90 l 1,25,-1
 194 90 l 1,26,-1
 194 0 l 1,27,-1
 24 0 l 1,0,-1
EndSplineSet
EndChar

StartChar: O
Encoding: 79 79 48
Width: 500
GlyphClass: 2
Flags: W
AnchorPoint: "Anclaje-5" 440 0 basechar 0
AnchorPoint: "Anclaje-4" 440 735 basechar 0
AnchorPoint: "Anclaje-3" 250 367 basechar 0
AnchorPoint: "Anclaje-2" 250 382 basechar 0
AnchorPoint: "Anclaje-1" 250 0 basechar 0
AnchorPoint: "Anclaje-0" 250 735 basechar 0
LayerCount: 2
Fore
SplineSet
250 -8 m 0,0,1
 228 -8 228 -8 209 -5 c 0,2,3
 169 1 169 1 138 19 c 0,4,5
 96 43 96 43 72 85 c 0,6,7
 44 134 44 134 43 203 c 2,8,-1
 43 532 l 2,9,10
 44 601 44 601 72 650 c 0,11,12
 96 692 96 692 138 716 c 0,13,14
 185 743 185 743 250 743 c 256,15,16
 315 743 315 743 362 716 c 0,17,18
 404 692 404 692 428 650 c 0,19,20
 456 601 456 601 457 532 c 2,21,-1
 457 203 l 2,22,23
 456 134 456 134 428 85 c 0,24,25
 404 43 404 43 362 19 c 0,26,27
 323 -4 323 -4 271 -7 c 0,28,29
 261 -8 261 -8 250 -8 c 0,0,1
250 82 m 256,30,31
 281 82 281 82 303.5 95 c 128,-1,32
 326 108 326 108 340 131 c 0,33,34
 356 160 356 160 357 203 c 2,35,-1
 357 532 l 2,36,37
 356 575 356 575 340 604 c 0,38,39
 326 627 326 627 303.5 640 c 128,-1,40
 281 653 281 653 250 653 c 256,41,42
 219 653 219 653 196.5 640 c 128,-1,43
 174 627 174 627 160 604 c 0,44,45
 144 575 144 575 143 532 c 2,46,-1
 143 203 l 2,47,48
 144 160 144 160 160 131 c 0,49,50
 174 108 174 108 196.5 95 c 128,-1,51
 219 82 219 82 250 82 c 256,30,31
EndSplineSet
EndChar

StartChar: P
Encoding: 80 80 49
Width: 500
GlyphClass: 2
Flags: W
AnchorPoint: "Anclaje-5" 440 0 basechar 0
AnchorPoint: "Anclaje-4" 440 735 basechar 0
AnchorPoint: "Anclaje-3" 250 367 basechar 0
AnchorPoint: "Anclaje-2" 250 382 basechar 0
AnchorPoint: "Anclaje-1" 250 0 basechar 0
AnchorPoint: "Anclaje-0" 250 735 basechar 0
LayerCount: 2
Fore
SplineSet
39 0 m 1,0,-1
 39 90 l 1,1,-1
 74 90 l 1,2,-1
 74 645 l 1,3,-1
 39 645 l 1,4,-1
 39 735 l 1,5,-1
 243 735 l 2,6,7
 310 735 310 735 359 707 c 0,8,9
 402 682 402 682 427 638 c 0,10,11
 456 588 456 588 457 516 c 0,12,13
 456 444 456 444 427 394 c 0,14,15
 402 350 402 350 359 325 c 0,16,17
 310 297 310 297 243 297 c 2,18,-1
 174 297 l 1,19,-1
 174 90 l 1,20,-1
 209 90 l 1,21,-1
 209 0 l 1,22,-1
 39 0 l 1,0,-1
243 387 m 2,23,24
 276 387 276 387 301 401 c 0,25,26
 324 414 324 414 339 439 c 0,27,28
 356 471 356 471 357 516 c 0,29,30
 356 561 356 561 339 592 c 0,31,32
 324 618 324 618 301 631 c 0,33,34
 276 645 276 645 243 645 c 2,35,-1
 174 645 l 1,36,-1
 174 387 l 1,37,-1
 243 387 l 2,23,24
EndSplineSet
EndChar

StartChar: Q
Encoding: 81 81 50
Width: 500
GlyphClass: 2
Flags: W
AnchorPoint: "Anclaje-5" 440 0 basechar 0
AnchorPoint: "Anclaje-4" 440 735 basechar 0
AnchorPoint: "Anclaje-3" 250 367 basechar 0
AnchorPoint: "Anclaje-2" 250 382 basechar 0
AnchorPoint: "Anclaje-1" 250 0 basechar 0
AnchorPoint: "Anclaje-0" 250 735 basechar 0
LayerCount: 2
Fore
SplineSet
372 -155 m 2,0,1
 316 -155 316 -155 278 -133 c 0,2,3
 245 -114 245 -114 227 -82 c 0,4,5
 208 -49 208 -49 207 -5 c 1,6,7
 169 1 169 1 138 19 c 0,8,9
 96 43 96 43 72 85 c 0,10,11
 44 134 44 134 43 203 c 2,12,-1
 43 532 l 2,13,14
 44 601 44 601 72 650 c 0,15,16
 96 692 96 692 138 716 c 0,17,18
 185 743 185 743 250 743 c 256,19,20
 315 743 315 743 362 716 c 0,21,22
 404 692 404 692 428 650 c 0,23,24
 456 601 456 601 457 532 c 2,25,-1
 457 203 l 2,26,27
 456 134 456 134 428 85 c 0,28,29
 404 43 404 43 362 19 c 0,30,31
 337 5 337 5 307 -2 c 1,32,33
 307 -21 307 -21 315 -36 c 0,34,35
 323 -49 323 -49 336 -56 c 0,36,37
 351 -65 351 -65 372 -65 c 2,38,-1
 420 -65 l 1,39,-1
 420 -155 l 1,40,-1
 372 -155 l 2,0,1
250 82 m 256,41,42
 281 82 281 82 303.5 95 c 128,-1,43
 326 108 326 108 340 131 c 0,44,45
 356 160 356 160 357 203 c 2,46,-1
 357 532 l 2,47,48
 356 575 356 575 340 604 c 0,49,50
 326 627 326 627 303.5 640 c 128,-1,51
 281 653 281 653 250 653 c 256,52,53
 219 653 219 653 196.5 640 c 128,-1,54
 174 627 174 627 160 604 c 0,55,56
 144 575 144 575 143 532 c 2,57,-1
 143 203 l 2,58,59
 144 160 144 160 160 131 c 0,60,61
 174 108 174 108 196.5 95 c 128,-1,62
 219 82 219 82 250 82 c 256,41,42
EndSplineSet
Substitution2: "Single Substitution lookup 25 subtable" Q.cv43
Substitution2: "'ss11' Style Set 11 lookup 24 subtable" Q.ss11
EndChar

StartChar: R
Encoding: 82 82 51
Width: 500
GlyphClass: 2
Flags: W
AnchorPoint: "Anclaje-5" 440 0 basechar 0
AnchorPoint: "Anclaje-4" 440 735 basechar 0
AnchorPoint: "Anclaje-3" 250 367 basechar 0
AnchorPoint: "Anclaje-2" 159 344 basechar 0
AnchorPoint: "Anclaje-1" 250 0 basechar 0
AnchorPoint: "Anclaje-0" 250 735 basechar 0
LayerCount: 2
Fore
SplineSet
24 0 m 1,0,-1
 24 90 l 1,1,-1
 59 90 l 1,2,-1
 59 645 l 1,3,-1
 24 645 l 1,4,-1
 24 735 l 1,5,-1
 252 735 l 2,6,7
 317 735 317 735 363 708 c 0,8,9
 404 685 404 685 429 642 c 0,10,11
 456 594 456 594 457 526 c 0,12,13
 456 458 456 458 429 410 c 0,14,15
 404 367 404 367 363 344 c 0,16,17
 345 333 345 333 324 327 c 1,18,19
 397 184 397 184 423 90 c 1,20,-1
 476 90 l 1,21,-1
 476 0 l 1,22,-1
 380 0 l 1,23,-1
 338 0 l 1,24,25
 338 98 338 98 219 317 c 1,26,-1
 159 317 l 1,27,-1
 159 90 l 1,28,-1
 194 90 l 1,29,-1
 194 0 l 1,30,-1
 24 0 l 1,0,-1
159 407 m 1,31,-1
 252 407 l 2,32,33
 283 407 283 407 305 419.5 c 128,-1,34
 327 432 327 432 340 455 c 0,35,36
 356 484 356 484 357 526 c 0,37,38
 356 568 356 568 340 597 c 0,39,40
 327 620 327 620 305 632.5 c 128,-1,41
 283 645 283 645 252 645 c 2,42,-1
 159 645 l 1,43,-1
 159 407 l 1,31,-1
EndSplineSet
EndChar

StartChar: S
Encoding: 83 83 52
Width: 500
GlyphClass: 2
Flags: W
AnchorPoint: "Anclaje-5" 440 0 basechar 0
AnchorPoint: "Anclaje-4" 440 735 basechar 0
AnchorPoint: "Anclaje-3" 250 367 basechar 0
AnchorPoint: "Anclaje-2" 250 382 basechar 0
AnchorPoint: "Anclaje-1" 250 0 basechar 0
AnchorPoint: "Anclaje-0" 250 735 basechar 0
LayerCount: 2
Fore
SplineSet
247 -8 m 0,0,1
 185 -8 185 -8 141 18 c 0,2,3
 101 40 101 40 79 80 c 0,4,5
 59 113 59 113 54 155 c 1,6,-1
 153 170 l 1,7,8
 155 145 155 145 166.5 125 c 128,-1,9
 178 105 178 105 198 94 c 0,10,11
 219 82 219 82 247 82 c 0,12,13
 276 82 276 82 296 94 c 0,14,15
 316 105 316 105 327 125 c 0,16,17
 341 148 341 148 341 178 c 0,18,19
 341 210 341 210 323 240 c 0,20,21
 301 280 301 280 226 327 c 0,22,23
 121 391 121 391 89 448 c 0,24,25
 59 499 59 499 59 555 c 0,26,27
 59 610 59 610 85 656 c 0,28,29
 108 695 108 695 147 717 c 0,30,31
 192 743 192 743 253 743 c 0,32,33
 315 743 315 743 359 717 c 0,34,35
 399 695 399 695 421 655 c 0,36,37
 441 622 441 622 446 580 c 1,38,-1
 347 565 l 1,39,40
 345 590 345 590 333.5 610 c 128,-1,41
 322 630 322 630 302 641 c 0,42,43
 281 653 281 653 253 653 c 0,44,45
 224 653 224 653 204 641 c 0,46,47
 184 630 184 630 173 610 c 0,48,49
 159 587 159 587 159 557 c 0,50,51
 159 525 159 525 177 495 c 0,52,53
 199 455 199 455 274 408 c 0,54,55
 379 344 379 344 411 287 c 0,56,57
 441 236 441 236 441 180 c 0,58,59
 441 125 441 125 415 79 c 0,60,61
 392 40 392 40 353 18 c 0,62,63
 308 -8 308 -8 247 -8 c 0,0,1
EndSplineSet
EndChar

StartChar: T
Encoding: 84 84 53
Width: 500
GlyphClass: 2
Flags: W
AnchorPoint: "Anclaje-5" 299 0 basechar 0
AnchorPoint: "Anclaje-4" 440 735 basechar 0
AnchorPoint: "Anclaje-3" 250 367 basechar 0
AnchorPoint: "Anclaje-2" 250 382 basechar 0
AnchorPoint: "Anclaje-1" 250 0 basechar 0
AnchorPoint: "Anclaje-0" 250 735 basechar 0
LayerCount: 2
Fore
SplineSet
145 0 m 1,0,-1
 145 90 l 1,1,-1
 200 90 l 1,2,-1
 200 645 l 1,3,-1
 147 645 l 1,4,-1
 147 590 l 1,5,-1
 51 590 l 1,6,-1
 51 735 l 1,7,-1
 449 735 l 1,8,-1
 449 590 l 1,9,-1
 353 590 l 1,10,-1
 353 645 l 1,11,-1
 300 645 l 1,12,-1
 300 90 l 1,13,-1
 355 90 l 1,14,-1
 355 0 l 1,15,-1
 145 0 l 1,0,-1
EndSplineSet
EndChar

StartChar: U
Encoding: 85 85 54
Width: 500
GlyphClass: 2
Flags: W
AnchorPoint: "Anclaje-5" 440 0 basechar 0
AnchorPoint: "Anclaje-4" 440 735 basechar 0
AnchorPoint: "Anclaje-3" 250 367 basechar 0
AnchorPoint: "Anclaje-2" 250 382 basechar 0
AnchorPoint: "Anclaje-1" 250 0 basechar 0
AnchorPoint: "Anclaje-0" 250 735 basechar 0
LayerCount: 2
Fore
SplineSet
250 -8 m 0,0,1
 193 -8 193 -8 152 16 c 0,2,3
 112 39 112 39 89 80 c 0,4,5
 60 130 60 130 59 203 c 2,6,-1
 59 645 l 1,7,-1
 24 645 l 1,8,-1
 24 735 l 1,9,-1
 194 735 l 1,10,-1
 194 645 l 1,11,-1
 159 645 l 1,12,-1
 159 203 l 2,13,14
 160 156 160 156 177 125 c 0,15,16
 190 103 190 103 209 92 c 0,17,18
 226 82 226 82 250 82 c 256,19,20
 274 82 274 82 291 92 c 0,21,22
 310 103 310 103 323 125 c 0,23,24
 340 156 340 156 341 203 c 2,25,-1
 341 645 l 1,26,-1
 306 645 l 1,27,-1
 306 735 l 1,28,-1
 476 735 l 1,29,-1
 476 645 l 1,30,-1
 441 645 l 1,31,-1
 441 203 l 2,32,33
 440 130 440 130 411 80 c 0,34,35
 388 39 388 39 348 16 c 0,36,37
 327 4 327 4 302.5 -2 c 128,-1,38
 278 -8 278 -8 250 -8 c 0,0,1
EndSplineSet
EndChar

StartChar: V
Encoding: 86 86 55
Width: 500
GlyphClass: 2
Flags: W
AnchorPoint: "Anclaje-5" 440 0 basechar 0
AnchorPoint: "Anclaje-4" 440 735 basechar 0
AnchorPoint: "Anclaje-3" 250 367 basechar 0
AnchorPoint: "Anclaje-2" 250 382 basechar 0
AnchorPoint: "Anclaje-1" 250 0 basechar 0
AnchorPoint: "Anclaje-0" 250 735 basechar 0
LayerCount: 2
Fore
SplineSet
190 0 m 1,0,1
 69 521 69 521 60 645 c 1,2,-1
 24 645 l 1,3,-1
 24 735 l 1,4,-1
 194 735 l 1,5,-1
 194 645 l 1,6,-1
 160 645 l 1,7,8
 167 540 167 540 250 149 c 1,9,10
 333 540 333 540 340 645 c 1,11,-1
 306 645 l 1,12,-1
 306 735 l 1,13,-1
 476 735 l 1,14,-1
 476 645 l 1,15,-1
 440 645 l 1,16,17
 431 521 431 521 310 0 c 1,18,-1
 190 0 l 1,0,1
EndSplineSet
EndChar

StartChar: W
Encoding: 87 87 56
Width: 500
GlyphClass: 2
Flags: W
AnchorPoint: "Anclaje-5" 440 0 basechar 0
AnchorPoint: "Anclaje-4" 440 735 basechar 0
AnchorPoint: "Anclaje-3" 250 367 basechar 0
AnchorPoint: "Anclaje-2" 250 382 basechar 0
AnchorPoint: "Anclaje-1" 250 0 basechar 0
AnchorPoint: "Anclaje-0" 250 735 basechar 0
LayerCount: 2
Fore
SplineSet
136 0 m 1,0,1
 60 383 60 383 59 551 c 2,2,-1
 59 645 l 1,3,-1
 24 645 l 1,4,-1
 24 735 l 1,5,-1
 194 735 l 1,6,-1
 194 645 l 1,7,-1
 159 645 l 1,8,-1
 159 551 l 2,9,10
 159 421 159 421 170 176 c 1,11,-1
 223 441 l 1,12,-1
 277 441 l 1,13,-1
 330 176 l 1,14,15
 341 421 341 421 341 551 c 2,16,-1
 341 645 l 1,17,-1
 306 645 l 1,18,-1
 306 735 l 1,19,-1
 476 735 l 1,20,-1
 476 645 l 1,21,-1
 441 645 l 1,22,-1
 441 551 l 2,23,24
 440 383 440 383 364 0 c 1,25,-1
 311 0 l 1,26,-1
 250 306 l 1,27,-1
 189 0 l 1,28,-1
 136 0 l 1,0,1
EndSplineSet
EndChar

StartChar: X
Encoding: 88 88 57
Width: 500
GlyphClass: 2
Flags: W
AnchorPoint: "Anclaje-5" 440 0 basechar 0
AnchorPoint: "Anclaje-4" 440 735 basechar 0
AnchorPoint: "Anclaje-3" 250 367 basechar 0
AnchorPoint: "Anclaje-2" 250 382 basechar 0
AnchorPoint: "Anclaje-1" 250 0 basechar 0
AnchorPoint: "Anclaje-0" 250 735 basechar 0
LayerCount: 2
Fore
SplineSet
24 0 m 1,0,-1
 24 90 l 1,1,-1
 63 90 l 1,2,3
 76 168 76 168 123 247 c 2,4,-1
 194 368 l 1,5,-1
 123 488 l 2,6,7
 76 567 76 567 63 645 c 1,8,-1
 24 645 l 1,9,-1
 24 735 l 1,10,-1
 194 735 l 1,11,-1
 194 645 l 1,12,-1
 165 645 l 1,13,14
 176 589 176 589 209 533 c 2,15,-1
 250 464 l 1,16,-1
 291 533 l 2,17,18
 324 589 324 589 335 645 c 1,19,-1
 306 645 l 1,20,-1
 306 735 l 1,21,-1
 476 735 l 1,22,-1
 476 645 l 1,23,-1
 437 645 l 1,24,25
 424 567 424 567 377 488 c 2,26,-1
 306 368 l 1,27,-1
 377 247 l 2,28,29
 424 168 424 168 437 90 c 1,30,-1
 476 90 l 1,31,-1
 476 0 l 1,32,-1
 306 0 l 1,33,-1
 306 90 l 1,34,-1
 335 90 l 1,35,36
 324 146 324 146 291 202 c 2,37,-1
 250 271 l 1,38,-1
 209 202 l 2,39,40
 176 146 176 146 165 90 c 1,41,-1
 194 90 l 1,42,-1
 194 0 l 1,43,-1
 24 0 l 1,0,-1
EndSplineSet
EndChar

StartChar: Y
Encoding: 89 89 58
Width: 500
GlyphClass: 2
Flags: W
AnchorPoint: "Anclaje-5" 440 0 basechar 0
AnchorPoint: "Anclaje-4" 440 735 basechar 0
AnchorPoint: "Anclaje-3" 250 367 basechar 0
AnchorPoint: "Anclaje-2" 250 294 basechar 0
AnchorPoint: "Anclaje-1" 250 0 basechar 0
AnchorPoint: "Anclaje-0" 250 735 basechar 0
LayerCount: 2
Fore
SplineSet
165 0 m 1,0,-1
 165 90 l 1,1,-1
 200 90 l 1,2,-1
 200 284 l 1,3,-1
 121 446 l 2,4,5
 71 546 71 546 61 645 c 1,6,-1
 24 645 l 1,7,-1
 24 735 l 1,8,-1
 194 735 l 1,9,-1
 194 645 l 1,10,-1
 162 645 l 1,11,12
 171 565 171 565 211 485 c 2,13,-1
 250 406 l 1,14,-1
 289 485 l 2,15,16
 329 565 329 565 338 645 c 1,17,-1
 306 645 l 1,18,-1
 306 735 l 1,19,-1
 476 735 l 1,20,-1
 476 645 l 1,21,-1
 439 645 l 1,22,23
 429 546 429 546 379 446 c 2,24,-1
 300 284 l 1,25,-1
 300 90 l 1,26,-1
 335 90 l 1,27,-1
 335 0 l 1,28,-1
 165 0 l 1,0,-1
EndSplineSet
EndChar

StartChar: Z
Encoding: 90 90 59
Width: 500
GlyphClass: 2
Flags: W
AnchorPoint: "Anclaje-5" 440 0 basechar 0
AnchorPoint: "Anclaje-4" 440 735 basechar 0
AnchorPoint: "Anclaje-3" 250 367 basechar 0
AnchorPoint: "Anclaje-2" 250 382 basechar 0
AnchorPoint: "Anclaje-1" 250 0 basechar 0
AnchorPoint: "Anclaje-0" 250 735 basechar 0
LayerCount: 2
Fore
SplineSet
59 0 m 1,0,-1
 59 90 l 1,1,-1
 326 645 l 1,2,-1
 159 645 l 1,3,-1
 159 590 l 1,4,-1
 59 590 l 1,5,-1
 59 735 l 1,6,-1
 441 735 l 1,7,-1
 441 645 l 1,8,-1
 174 90 l 1,9,-1
 341 90 l 1,10,-1
 341 145 l 1,11,-1
 441 145 l 1,12,-1
 441 0 l 1,13,-1
 59 0 l 1,0,-1
EndSplineSet
EndChar

StartChar: bracketleft
Encoding: 91 91 60
Width: 500
GlyphClass: 2
Flags: W
LayerCount: 2
Fore
SplineSet
98 -168 m 1,0,-1
 98 898 l 1,1,-1
 422 898 l 1,2,-1
 422 808 l 1,3,-1
 198 808 l 1,4,-1
 198 -78 l 1,5,-1
 422 -78 l 1,6,-1
 422 -168 l 1,7,-1
 98 -168 l 1,0,-1
EndSplineSet
EndChar

StartChar: backslash
Encoding: 92 92 61
Width: 500
GlyphClass: 2
Flags: W
LayerCount: 2
Fore
SplineSet
345 -168 m 1,0,-1
 53 898 l 1,1,-1
 155 898 l 1,2,-1
 447 -168 l 1,3,-1
 345 -168 l 1,0,-1
EndSplineSet
EndChar

StartChar: bracketright
Encoding: 93 93 62
Width: 500
GlyphClass: 2
Flags: W
LayerCount: 2
Fore
SplineSet
78 -168 m 1,0,-1
 78 -78 l 1,1,-1
 302 -78 l 1,2,-1
 302 808 l 1,3,-1
 78 808 l 1,4,-1
 78 898 l 1,5,-1
 402 898 l 1,6,-1
 402 -168 l 1,7,-1
 78 -168 l 1,0,-1
EndSplineSet
EndChar

StartChar: asciicircum
Encoding: 94 94 63
Width: 500
GlyphClass: 2
Flags: W
LayerCount: 2
Fore
SplineSet
119 532 m 1,0,-1
 37 591 l 1,1,-1
 198 782 l 1,2,-1
 302 782 l 1,3,-1
 463 591 l 1,4,-1
 381 532 l 1,5,-1
 250 711 l 1,6,-1
 119 532 l 1,0,-1
EndSplineSet
Substitution2: "Single Substitution lookup 57 subtable" asciicircum.cv30
Substitution2: "'ss11' Style Set 11 lookup 56 subtable" asciicircum.ss11
EndChar

StartChar: underscore
Encoding: 95 95 64
Width: 500
GlyphClass: 2
Flags: W
LayerCount: 2
Fore
SplineSet
59 0 m 1,0,-1
 59 90 l 1,1,-1
 441 90 l 1,2,-1
 441 0 l 1,3,-1
 59 0 l 1,0,-1
EndSplineSet
Substitution2: "'ss10' Style Set 10 lookup 53 subtable" underscore.ss10
Substitution2: "'ss11' Style Set 11 lookup 52 subtable" underscore.ss11
EndChar

StartChar: grave
Encoding: 96 96 65
Width: 500
GlyphClass: 2
Flags: W
LayerCount: 2
Fore
SplineSet
280 529 m 1,0,-1
 83 726 l 1,1,-1
 163 794 l 1,2,-1
 346 585 l 1,3,-1
 280 529 l 1,0,-1
EndSplineSet
EndChar

StartChar: a
Encoding: 97 97 66
Width: 500
GlyphClass: 2
Flags: W
AnchorPoint: "Anclaje-6" 398 0 basechar 0
AnchorPoint: "Anclaje-5" 440 0 basechar 0
AnchorPoint: "Anclaje-4" 440 530 basechar 0
AnchorPoint: "Anclaje-3" 250 265 basechar 0
AnchorPoint: "Anclaje-2" 250 275 basechar 0
AnchorPoint: "Anclaje-1" 250 0 basechar 0
AnchorPoint: "Anclaje-0" 250 530 basechar 0
LayerCount: 2
Fore
SplineSet
196 -8 m 0,0,1
 149 -8 149 -8 115 11 c 0,2,3
 84 30 84 30 66 61 c 0,4,5
 44 99 44 99 43 153 c 0,6,7
 44 200 44 200 63 233 c 0,8,9
 84 269 84 269 124 293 c 0,10,11
 182 326 182 326 269 326 c 2,12,-1
 341 326 l 1,13,-1
 341 359 l 2,14,15
 340 387 340 387 329 407 c 0,16,17
 319 425 319 425 300 435 c 0,18,19
 278 448 278 448 247 448 c 0,20,21
 214 448 214 448 192 435 c 0,22,23
 174 425 174 425 163 406 c 0,24,25
 155 392 155 392 153 377 c 1,26,-1
 57 400 l 1,27,28
 61 428 61 428 76 453 c 0,29,30
 97 490 97 490 134 511 c 0,31,32
 180 538 180 538 247 538 c 0,33,34
 313 538 313 538 359 512 c 0,35,36
 397 489 397 489 418 453 c 0,37,38
 440 414 440 414 441 359 c 2,39,-1
 441 90 l 1,40,-1
 476 90 l 1,41,-1
 476 0 l 1,42,-1
 341 0 l 1,43,-1
 341 70 l 1,44,45
 318 34 318 34 284 14 c 0,46,47
 246 -8 246 -8 196 -8 c 0,0,1
229 82 m 0,48,49
 264 82 264 82 289 97 c 0,50,51
 312 110 312 110 325 133 c 0,52,53
 340 159 340 159 341 198 c 2,54,-1
 341 236 l 1,55,-1
 269 236 l 2,56,57
 216 236 216 236 182 217 c 0,58,59
 162 205 162 205 152 188 c 0,60,61
 144 174 144 174 143 153 c 0,62,63
 144 133 144 133 152.5 118 c 128,-1,64
 161 103 161 103 177 94 c 0,65,66
 198 82 198 82 229 82 c 0,48,49
EndSplineSet
Substitution2: "'ss11' Style Set 11 lookup 18 subtable" a.ss11
Substitution2: "'ss07' Style Set 7 lookup 17 subtable" a.ss07
EndChar

StartChar: b
Encoding: 98 98 67
Width: 500
GlyphClass: 2
Flags: W
AnchorPoint: "Anclaje-5" 440 0 basechar 0
AnchorPoint: "Anclaje-4" 440 735 basechar 0
AnchorPoint: "Anclaje-3" 250 367 basechar 0
AnchorPoint: "Anclaje-2" 250 382 basechar 0
AnchorPoint: "Anclaje-1" 250 0 basechar 0
AnchorPoint: "Anclaje-0" 250 735 basechar 0
LayerCount: 2
Fore
SplineSet
285 -8 m 0,0,1
 279 -8 279 -8 274 -8 c 0,2,3
 242 -6 242 -6 217 9 c 0,4,5
 184 28 184 28 162 66 c 0,6,7
 160 69 160 69 159 72 c 2,8,-1
 159 0 l 1,9,-1
 24 0 l 1,10,-1
 24 90 l 1,11,-1
 59 90 l 1,12,-1
 59 645 l 1,13,-1
 24 645 l 1,14,-1
 24 735 l 1,15,-1
 159 735 l 1,16,-1
 159 458 l 2,17,18
 160 461 160 461 162 464 c 0,19,20
 184 502 184 502 217 521 c 0,21,22
 246 538 246 538 285 538 c 0,23,24
 329 538 329 538 363 518 c 0,25,26
 400 497 400 497 423 457 c 0,27,28
 456 399 456 399 457 310 c 2,29,-1
 457 220 l 2,30,31
 456 131 456 131 423 73 c 0,32,33
 400 33 400 33 363 12 c 0,34,35
 329 -8 329 -8 285 -8 c 0,0,1
251 82 m 0,36,37
 278 82 278 82 300 94 c 0,38,39
 322 108 322 108 336 132 c 0,40,41
 356 166 356 166 357 220 c 2,42,-1
 357 310 l 2,43,44
 356 364 356 364 336 398 c 0,45,46
 322 422 322 422 300 436 c 0,47,48
 278 448 278 448 251 448 c 0,49,50
 229 448 229 448 212 439 c 0,51,52
 194 428 194 428 180 405 c 0,53,54
 160 369 160 369 159 310 c 2,55,-1
 159 220 l 2,56,57
 160 161 160 161 180 125 c 0,58,59
 194 102 194 102 212 91 c 0,60,61
 229 82 229 82 251 82 c 0,36,37
EndSplineSet
EndChar

StartChar: c
Encoding: 99 99 68
Width: 500
GlyphClass: 2
Flags: W
AnchorPoint: "Anclaje-5" 440 0 basechar 0
AnchorPoint: "Anclaje-4" 440 530 basechar 0
AnchorPoint: "Anclaje-3" 250 265 basechar 0
AnchorPoint: "Anclaje-2" 250 275 basechar 0
AnchorPoint: "Anclaje-1" 250 0 basechar 0
AnchorPoint: "Anclaje-0" 250 530 basechar 0
LayerCount: 2
Fore
SplineSet
247 -8 m 0,0,1
 187 -8 187 -8 143 17 c 0,2,3
 101 42 101 42 75 86 c 0,4,5
 44 141 44 141 43 220 c 2,6,-1
 43 310 l 2,7,8
 44 389 44 389 75 444 c 0,9,10
 101 488 101 488 143 513 c 0,11,12
 187 538 187 538 247 538 c 0,13,14
 308 538 308 538 352 513 c 0,15,16
 394 488 394 488 420 444 c 0,17,18
 438 413 438 413 446 375 c 1,19,-1
 350 348 l 1,20,21
 346 375 346 375 333 398 c 0,22,23
 318 423 318 423 296 436 c 0,24,25
 275 448 275 448 247 448 c 0,26,27
 220 448 220 448 200 436 c 0,28,29
 178 423 178 423 164 399 c 0,30,31
 144 364 144 364 143 310 c 2,32,-1
 143 220 l 2,33,34
 144 166 144 166 164 131 c 0,35,36
 178 107 178 107 200 94 c 0,37,38
 220 82 220 82 247 82 c 0,39,40
 275 82 275 82 296 94 c 0,41,42
 318 107 318 107 333 132 c 0,43,44
 346 155 346 155 350 182 c 1,45,-1
 446 155 l 1,46,47
 438 117 438 117 420 86 c 0,48,49
 394 42 394 42 352 17 c 0,50,51
 308 -8 308 -8 247 -8 c 0,0,1
EndSplineSet
EndChar

StartChar: d
Encoding: 100 100 69
Width: 500
GlyphClass: 2
Flags: W
AnchorPoint: "Anclaje-5" 440 0 basechar 0
AnchorPoint: "Anclaje-4" 440 735 basechar 0
AnchorPoint: "Anclaje-3" 250 367 basechar 0
AnchorPoint: "Anclaje-2" 250 382 basechar 0
AnchorPoint: "Anclaje-1" 250 0 basechar 0
AnchorPoint: "Anclaje-0" 250 735 basechar 0
LayerCount: 2
Fore
SplineSet
215 -8 m 0,0,1
 171 -8 171 -8 137 12 c 0,2,3
 100 33 100 33 77 73 c 0,4,5
 44 131 44 131 43 220 c 2,6,-1
 43 310 l 2,7,8
 44 399 44 399 77 457 c 0,9,10
 100 497 100 497 137 518 c 0,11,12
 171 538 171 538 215 538 c 0,13,14
 254 538 254 538 283 521 c 0,15,16
 316 502 316 502 338 464 c 0,17,18
 340 461 340 461 341 458 c 2,19,-1
 341 645 l 1,20,-1
 306 645 l 1,21,-1
 306 735 l 1,22,-1
 441 735 l 1,23,-1
 441 90 l 1,24,-1
 476 90 l 1,25,-1
 476 0 l 1,26,-1
 341 0 l 1,27,-1
 341 72 l 2,28,29
 340 69 340 69 338 66 c 0,30,31
 316 28 316 28 283 9 c 0,32,33
 254 -8 254 -8 215 -8 c 0,0,1
249 82 m 0,34,35
 271 82 271 82 288 91 c 0,36,37
 306 102 306 102 320 125 c 0,38,39
 340 161 340 161 341 220 c 2,40,-1
 341 310 l 2,41,42
 340 369 340 369 320 405 c 0,43,44
 306 428 306 428 288 439 c 0,45,46
 271 448 271 448 249 448 c 0,47,48
 222 448 222 448 200 436 c 0,49,50
 178 422 178 422 164 398 c 0,51,52
 144 364 144 364 143 310 c 2,53,-1
 143 220 l 2,54,55
 144 166 144 166 164 132 c 0,56,57
 178 108 178 108 200 94 c 0,58,59
 222 82 222 82 249 82 c 0,34,35
EndSplineSet
EndChar

StartChar: e
Encoding: 101 101 70
Width: 500
GlyphClass: 2
Flags: W
AnchorPoint: "Anclaje-5" 440 0 basechar 0
AnchorPoint: "Anclaje-4" 440 530 basechar 0
AnchorPoint: "Anclaje-3" 250 265 basechar 0
AnchorPoint: "Anclaje-2" 250 275 basechar 0
AnchorPoint: "Anclaje-1" 250 0 basechar 0
AnchorPoint: "Anclaje-0" 250 530 basechar 0
LayerCount: 2
Fore
SplineSet
255 -8 m 256,0,1
 191 -8 191 -8 144 19 c 0,2,3
 100 44 100 44 75 89 c 0,4,5
 44 142 44 142 43 220 c 2,6,-1
 43 310 l 2,7,8
 44 389 44 389 75 443 c 0,9,10
 100 487 100 487 143 512 c 0,11,12
 189 538 189 538 250 538 c 256,13,14
 311 538 311 538 357 512 c 0,15,16
 400 487 400 487 425 443 c 0,17,18
 456 389 456 389 457 310 c 2,19,-1
 457 220 l 1,20,-1
 143 220 l 1,21,22
 144 169 144 169 163 134 c 0,23,24
 178 109 178 109 201.5 95.5 c 128,-1,25
 225 82 225 82 255 82 c 0,26,27
 287 82 287 82 310.5 95.5 c 128,-1,28
 334 109 334 109 349 135 c 0,29,30
 357 149 357 149 362 165 c 1,31,-1
 454 130 l 1,32,33
 446 107 446 107 435 89 c 0,34,35
 410 44 410 44 366 19 c 0,36,37
 319 -8 319 -8 255 -8 c 256,0,1
143 310 m 1,38,-1
 357 310 l 1,39,40
 356 364 356 364 336 398 c 0,41,42
 322 422 322 422 300 436 c 0,43,44
 278 448 278 448 250 448 c 256,45,46
 222 448 222 448 200 436 c 0,47,48
 178 422 178 422 164 398 c 0,49,50
 144 364 144 364 143 310 c 1,38,-1
EndSplineSet
EndChar

StartChar: f
Encoding: 102 102 71
Width: 500
GlyphClass: 2
Flags: W
AnchorPoint: "Anclaje-5" 440 0 basechar 0
AnchorPoint: "Anclaje-4" 440 735 basechar 0
AnchorPoint: "Anclaje-3" 250 367 basechar 0
AnchorPoint: "Anclaje-2" 250 382 basechar 0
AnchorPoint: "Anclaje-1" 250 0 basechar 0
AnchorPoint: "Anclaje-0" 250 735 basechar 0
LayerCount: 2
Fore
SplineSet
67 0 m 1,0,-1
 67 90 l 1,1,-1
 168 90 l 1,2,-1
 168 415 l 1,3,-1
 59 415 l 1,4,-1
 59 505 l 1,5,-1
 168 505 l 1,6,-1
 168 589 l 2,7,8
 168 646 168 646 191 688 c 0,9,10
 211 721 211 721 243 739 c 0,11,12
 276 759 276 759 323 759 c 0,13,14
 369 759 369 759 403 739 c 0,15,16
 435 721 435 721 454 688 c 0,17,18
 468 664 468 664 474 635 c 1,19,-1
 378 609 l 1,20,21
 373 639 373 639 357 655 c 0,22,23
 343 669 343 669 323 669 c 256,24,25
 303 669 303 669 289 656 c 0,26,27
 268 634 268 634 268 589 c 2,28,-1
 268 505 l 1,29,-1
 422 505 l 1,30,-1
 422 415 l 1,31,-1
 268 415 l 1,32,-1
 268 90 l 1,33,-1
 393 90 l 1,34,-1
 393 0 l 1,35,-1
 67 0 l 1,0,-1
EndSplineSet
Substitution2: "Single Substitution lookup 29 subtable" f.cv53
Substitution2: "'ss11' Style Set 11 lookup 28 subtable" f.ss11
EndChar

StartChar: g
Encoding: 103 103 72
Width: 500
GlyphClass: 2
Flags: W
AnchorPoint: "Anclaje-5" 440 -205 basechar 0
AnchorPoint: "Anclaje-4" 440 530 basechar 0
AnchorPoint: "Anclaje-3" 250 162 basechar 0
AnchorPoint: "Anclaje-2" 250 -49 basechar 0
AnchorPoint: "Anclaje-1" 250 -205 basechar 0
AnchorPoint: "Anclaje-0" 250 530 basechar 0
LayerCount: 2
Fore
SplineSet
250 -213 m 0,0,1
 170 -213 170 -213 116 -182 c 0,2,3
 76 -159 76 -159 55 -122 c 0,4,5
 35 -88 35 -88 34 -40 c 0,6,7
 35 3 35 3 53 34 c 0,8,9
 66 58 66 58 89 75 c 1,10,11
 86 79 86 79 83 84 c 0,12,13
 68 110 68 110 69 139 c 0,14,15
 68 170 68 170 85 198 c 0,16,17
 92 211 92 211 102 222 c 1,18,19
 80 240 80 240 66 264 c 0,20,21
 44 303 44 303 43 358 c 0,22,23
 44 412 44 412 66 451 c 0,24,25
 88 488 88 488 126 511 c 0,26,27
 174 538 174 538 241 538 c 0,28,29
 278 538 278 538 308 530 c 1,30,-1
 471 530 l 1,31,-1
 471 440 l 1,32,-1
 421 442 l 1,33,34
 439 406 439 406 439 358 c 0,35,36
 439 303 439 303 416 264 c 0,37,38
 395 227 395 227 356 205 c 0,39,40
 309 178 309 178 241 178 c 0,41,42
 203 178 203 178 170 185 c 1,43,44
 158 173 158 173 158 157 c 128,-1,45
 158 141 158 141 169 130 c 0,46,47
 184 115 184 115 220 114 c 0,48,49
 223 114 223 114 225 114 c 2,50,-1
 275 114 l 2,51,52
 347 114 347 114 395 86 c 0,53,54
 430 66 430 66 448.5 34 c 128,-1,55
 467 2 467 2 467 -42 c 128,-1,56
 467 -86 467 -86 447 -122 c 0,57,58
 425 -159 425 -159 386 -182 c 0,59,60
 331 -213 331 -213 250 -213 c 0,0,1
250 -123 m 0,61,62
 298 -123 298 -123 328 -105 c 0,63,64
 348 -94 348 -94 358 -77 c 0,65,66
 367 -61 367 -61 367 -42 c 0,67,68
 367 -25 367 -25 359.5 -12 c 128,-1,69
 352 1 352 1 337 10 c 0,70,71
 312 24 312 24 275 24 c 2,72,-1
 225 24 l 1,73,-1
 224 24 l 1,74,-1
 220 24 l 2,75,76
 188 24 188 24 165 10 c 0,77,78
 150 2 150 2 141 -12 c 0,79,80
 135 -24 135 -24 134 -41 c 0,81,82
 135 -62 135 -62 144 -77 c 0,83,84
 154 -94 154 -94 174 -106 c 0,85,86
 204 -123 204 -123 250 -123 c 0,61,62
241 268 m 256,87,88
 274 268 274 268 297 281 c 0,89,90
 317 292 317 292 327 311 c 0,91,92
 339 330 339 330 339 358 c 128,-1,93
 339 386 339 386 327 405 c 0,94,95
 317 424 317 424 297.5 435 c 128,-1,96
 278 446 278 446 252 448 c 2,97,-1
 241 448 l 2,98,99
 208 448 208 448 185 435 c 0,100,101
 165 424 165 424 154.5 405 c 128,-1,102
 144 386 144 386 143 358 c 0,103,104
 144 330 144 330 154.5 311 c 128,-1,105
 165 292 165 292 185 281 c 0,106,107
 208 268 208 268 241 268 c 256,87,88
EndSplineSet
Substitution2: "'ss05' Estilo 5 lookup 23 subtable" g.ss05
Substitution2: "'ss09' Style Set 9 lookup 22 subtable" g.ss09
Substitution2: "'ss11' Style Set 11 lookup 21 subtable" g.ss11
EndChar

StartChar: h
Encoding: 104 104 73
Width: 500
GlyphClass: 2
Flags: W
AnchorPoint: "Anclaje-5" 440 0 basechar 0
AnchorPoint: "Anclaje-4" 440 735 basechar 0
AnchorPoint: "Anclaje-3" 250 367 basechar 0
AnchorPoint: "Anclaje-2" 250 382 basechar 0
AnchorPoint: "Anclaje-1" 250 0 basechar 0
AnchorPoint: "Anclaje-0" 250 735 basechar 0
LayerCount: 2
Fore
SplineSet
24 0 m 1,0,-1
 24 90 l 1,1,-1
 59 90 l 1,2,-1
 59 645 l 1,3,-1
 24 645 l 1,4,-1
 24 735 l 1,5,-1
 159 735 l 1,6,-1
 159 458 l 2,7,8
 160 461 160 461 162 464 c 0,9,10
 184 502 184 502 217 521 c 0,11,12
 246 538 246 538 284 538 c 256,13,14
 322 538 322 538 351 521 c 0,15,16
 384 502 384 502 406 464 c 0,17,18
 440 405 440 405 441 310 c 2,19,-1
 441 90 l 1,20,-1
 476 90 l 1,21,-1
 476 0 l 1,22,-1
 306 0 l 1,23,-1
 306 90 l 1,24,-1
 341 90 l 1,25,-1
 341 310 l 2,26,27
 340 369 340 369 320 405 c 0,28,29
 306 428 306 428 288 439 c 0,30,31
 271 448 271 448 250 448 c 256,32,33
 229 448 229 448 212 439 c 0,34,35
 194 428 194 428 180 405 c 0,36,37
 160 369 160 369 159 310 c 2,38,-1
 159 90 l 1,39,-1
 194 90 l 1,40,-1
 194 0 l 1,41,-1
 24 0 l 1,0,-1
EndSplineSet
EndChar

StartChar: i
Encoding: 105 105 74
Width: 500
GlyphClass: 2
Flags: W
AnchorPoint: "Anclaje-5" 440 0 basechar 0
AnchorPoint: "Anclaje-4" 440 530 basechar 0
AnchorPoint: "Anclaje-3" 250 265 basechar 0
AnchorPoint: "Anclaje-2" 250 275 basechar 0
AnchorPoint: "Anclaje-1" 250 0 basechar 0
AnchorPoint: "Anclaje-0" 250 743 basechar 0
LayerCount: 2
Fore
SplineSet
250 615 m 256,0,1
 227 615 227 615 212 624 c 0,2,3
 198 632 198 632 189 647 c 0,4,5
 180 663 180 663 180 685 c 128,-1,6
 180 707 180 707 189 723 c 0,7,8
 198 738 198 738 212 746 c 0,9,10
 227 755 227 755 250 755 c 256,11,12
 273 755 273 755 288 746 c 0,13,14
 302 738 302 738 311 723 c 0,15,16
 320 707 320 707 320 685 c 128,-1,17
 320 663 320 663 311 647 c 0,18,19
 302 632 302 632 288 624 c 0,20,21
 273 615 273 615 250 615 c 256,0,1
75 0 m 1,22,-1
 75 90 l 1,23,-1
 207 90 l 1,24,-1
 207 440 l 1,25,-1
 89 440 l 1,26,-1
 89 530 l 1,27,-1
 307 530 l 1,28,-1
 307 90 l 1,29,-1
 425 90 l 1,30,-1
 425 0 l 1,31,-1
 75 0 l 1,22,-1
EndSplineSet
Substitution2: "'cv04' Character Variants 04 lookup 10 subtable" i.cv04
Substitution2: "'ss11' Style Set 11 lookup 9 subtable" i.ss11
Substitution2: "'ss07' Style Set 7 lookup 8 subtable" i.ss07
Substitution2: "'ss10' Style Set 10 lookup 7 subtable" i.ss10
Substitution2: "Single Substitution lookup 0 subtable" dotlessi
EndChar

StartChar: j
Encoding: 106 106 75
Width: 500
GlyphClass: 2
Flags: W
AnchorPoint: "Anclaje-5" 440 -205 basechar 0
AnchorPoint: "Anclaje-4" 440 530 basechar 0
AnchorPoint: "Anclaje-3" 250 162 basechar 0
AnchorPoint: "Anclaje-2" 296 265 basechar 0
AnchorPoint: "Anclaje-1" 250 -205 basechar 0
AnchorPoint: "Anclaje-0" 296 743 basechar 0
LayerCount: 2
Fore
SplineSet
296 615 m 0,0,1
 274 615 274 615 258 624 c 0,2,3
 244 633 244 633 236 647 c 0,4,5
 227 662 227 662 226 685 c 0,6,7
 227 708 227 708 236 723 c 0,8,9
 244 737 244 737 258 746 c 0,10,11
 274 755 274 755 296 755 c 0,12,13
 319 755 319 755 335 746 c 0,14,15
 349 737 349 737 357 723 c 0,16,17
 367 707 367 707 366 685 c 0,18,19
 367 663 367 663 357 647 c 0,20,21
 349 633 349 633 335 624 c 0,22,23
 319 615 319 615 296 615 c 0,0,1
179 -213 m 0,24,25
 126 -213 126 -213 87.5 -190.5 c 128,-1,26
 49 -168 49 -168 26 -128 c 0,27,28
 10 -102 10 -102 3 -70 c 1,29,-1
 97 -39 l 1,30,31
 101 -63 101 -63 112 -82 c 0,32,33
 124 -103 124 -103 142 -114 c 0,34,35
 159 -123 159 -123 179 -123 c 0,36,37
 200 -123 200 -123 215 -114 c 0,38,39
 233 -104 233 -104 245 -83 c 0,40,41
 263 -52 263 -52 263 -2 c 2,42,-1
 263 440 l 1,43,-1
 138 440 l 1,44,-1
 138 530 l 1,45,-1
 363 530 l 1,46,-1
 363 -2 l 2,47,48
 363 -77 363 -77 333 -128 c 0,49,50
 310 -168 310 -168 272 -190 c 0,51,52
 233 -213 233 -213 179 -213 c 0,24,25
EndSplineSet
Substitution2: "Single Substitution lookup 0 subtable" uni0237
EndChar

StartChar: k
Encoding: 107 107 76
Width: 500
GlyphClass: 2
Flags: W
AnchorPoint: "Anclaje-5" 440 0 basechar 0
AnchorPoint: "Anclaje-4" 440 735 basechar 0
AnchorPoint: "Anclaje-3" 250 367 basechar 0
AnchorPoint: "Anclaje-2" 250 382 basechar 0
AnchorPoint: "Anclaje-1" 250 0 basechar 0
AnchorPoint: "Anclaje-0" 250 735 basechar 0
LayerCount: 2
Fore
SplineSet
24 0 m 1,0,-1
 24 90 l 1,1,-1
 59 90 l 1,2,-1
 59 645 l 1,3,-1
 24 645 l 1,4,-1
 24 735 l 1,5,-1
 159 735 l 1,6,-1
 159 314 l 1,7,8
 294 468 294 468 319 513 c 0,9,10
 325 523 325 523 326 530 c 1,11,-1
 366 530 l 1,12,-1
 476 530 l 1,13,-1
 476 440 l 1,14,-1
 382 440 l 1,15,16
 347 395 347 395 289 330 c 1,17,18
 376 174 376 174 415 90 c 1,19,-1
 476 90 l 1,20,-1
 476 0 l 1,21,-1
 391 0 l 1,22,-1
 349 0 l 1,23,24
 348 35 348 35 227 259 c 1,25,26
 195 223 195 223 159 183 c 1,27,-1
 159 90 l 1,28,-1
 194 90 l 1,29,-1
 194 0 l 1,30,-1
 24 0 l 1,0,-1
EndSplineSet
EndChar

StartChar: l
Encoding: 108 108 77
Width: 500
GlyphClass: 2
Flags: W
AnchorPoint: "Anclaje-5" 440 0 basechar 0
AnchorPoint: "Anclaje-4" 440 735 basechar 0
AnchorPoint: "Anclaje-3" 250 367 basechar 0
AnchorPoint: "Anclaje-2" 253 382 basechar 0
AnchorPoint: "Anclaje-1" 250 0 basechar 0
AnchorPoint: "Anclaje-0" 250 735 basechar 0
LayerCount: 2
Fore
SplineSet
75 0 m 1,0,-1
 75 90 l 1,1,-1
 207 90 l 1,2,-1
 207 645 l 1,3,-1
 89 645 l 1,4,-1
 89 735 l 1,5,-1
 307 735 l 1,6,-1
 307 90 l 1,7,-1
 425 90 l 1,8,-1
 425 0 l 1,9,-1
 75 0 l 1,0,-1
EndSplineSet
Substitution2: "Single Substitution lookup 16 subtable" l.cv28
Substitution2: "Single Substitution lookup 15 subtable" l.cv27
Substitution2: "'ss09' Style Set 9 lookup 14 subtable" l.ss09
Substitution2: "'ss11' Style Set 11 lookup 13 subtable" l.ss11
Substitution2: "'ss07' Style Set 7 lookup 12 subtable" l.ss07
Substitution2: "'ss10' Style Set 10 lookup 11 subtable" l.ss10
EndChar

StartChar: m
Encoding: 109 109 78
Width: 500
GlyphClass: 2
Flags: W
AnchorPoint: "Anclaje-5" 440 0 basechar 0
AnchorPoint: "Anclaje-4" 440 530 basechar 0
AnchorPoint: "Anclaje-3" 250 265 basechar 0
AnchorPoint: "Anclaje-2" 250 275 basechar 0
AnchorPoint: "Anclaje-1" 250 0 basechar 0
AnchorPoint: "Anclaje-0" 250 530 basechar 0
LayerCount: 2
Fore
SplineSet
24 0 m 1,0,-1
 24 90 l 1,1,-1
 51 90 l 1,2,-1
 51 440 l 1,3,-1
 24 440 l 1,4,-1
 24 530 l 1,5,-1
 147 530 l 1,6,-1
 147 501 l 1,7,8
 159 521 159 521 176 530 c 0,9,10
 189 538 189 538 207 538 c 0,11,12
 226 538 226 538 241 529 c 0,13,14
 260 519 260 519 272 496 c 0,15,16
 279 484 279 484 284 471 c 1,17,18
 289 485 289 485 296 497 c 0,19,20
 309 520 309 520 326 530 c 0,21,22
 341 538 341 538 358 538 c 0,23,24
 377 538 377 538 391 529 c 0,25,26
 410 519 410 519 423 496 c 0,27,28
 448 452 448 452 449 376 c 2,29,-1
 449 90 l 1,30,-1
 476 90 l 1,31,-1
 476 0 l 1,32,-1
 353 0 l 1,33,-1
 353 376 l 2,34,35
 353 431 353 431 336 447 c 0,36,37
 332 452 332 452 325 452 c 0,38,39
 319 452 319 452 314 447 c 0,40,41
 298 430 298 430 298 376 c 2,42,-1
 298 0 l 1,43,-1
 202 0 l 1,44,-1
 202 376 l 2,45,46
 202 430 202 430 186 447 c 0,47,48
 181 452 181 452 175 452 c 0,49,50
 168 452 168 452 164 447 c 0,51,52
 147 431 147 431 147 376 c 2,53,-1
 147 0 l 1,54,-1
 24 0 l 1,0,-1
EndSplineSet
Substitution2: "Single Substitution lookup 27 subtable" m.cv26
Substitution2: "'ss11' Style Set 11 lookup 26 subtable" m.ss11
EndChar

StartChar: n
Encoding: 110 110 79
Width: 500
GlyphClass: 2
Flags: W
AnchorPoint: "Anclaje-5" 440 0 basechar 0
AnchorPoint: "Anclaje-4" 440 530 basechar 0
AnchorPoint: "Anclaje-3" 250 265 basechar 0
AnchorPoint: "Anclaje-2" 250 275 basechar 0
AnchorPoint: "Anclaje-1" 250 0 basechar 0
AnchorPoint: "Anclaje-0" 250 530 basechar 0
LayerCount: 2
Fore
SplineSet
24 0 m 1,0,-1
 24 90 l 1,1,-1
 59 90 l 1,2,-1
 59 440 l 1,3,-1
 24 440 l 1,4,-1
 24 530 l 1,5,-1
 159 530 l 1,6,-1
 159 458 l 2,7,8
 160 461 160 461 162 464 c 0,9,10
 184 502 184 502 217 521 c 0,11,12
 246 538 246 538 284 538 c 256,13,14
 322 538 322 538 351 521 c 0,15,16
 384 502 384 502 406 464 c 0,17,18
 440 405 440 405 441 310 c 2,19,-1
 441 90 l 1,20,-1
 476 90 l 1,21,-1
 476 0 l 1,22,-1
 306 0 l 1,23,-1
 306 90 l 1,24,-1
 341 90 l 1,25,-1
 341 310 l 2,26,27
 340 369 340 369 320 405 c 0,28,29
 306 428 306 428 288 439 c 0,30,31
 271 448 271 448 250 448 c 256,32,33
 229 448 229 448 212 439 c 0,34,35
 194 428 194 428 180 405 c 0,36,37
 160 369 160 369 159 310 c 2,38,-1
 159 90 l 1,39,-1
 194 90 l 1,40,-1
 194 0 l 1,41,-1
 24 0 l 1,0,-1
EndSplineSet
EndChar

StartChar: o
Encoding: 111 111 80
Width: 500
GlyphClass: 2
Flags: W
AnchorPoint: "Anclaje-5" 440 0 basechar 0
AnchorPoint: "Anclaje-4" 440 530 basechar 0
AnchorPoint: "Anclaje-3" 250 265 basechar 0
AnchorPoint: "Anclaje-2" 250 275 basechar 0
AnchorPoint: "Anclaje-1" 250 0 basechar 0
AnchorPoint: "Anclaje-0" 250 530 basechar 0
LayerCount: 2
Fore
SplineSet
250 -8 m 256,0,1
 189 -8 189 -8 143 18 c 0,2,3
 100 43 100 43 75 87 c 0,4,5
 44 141 44 141 43 220 c 2,6,-1
 43 310 l 2,7,8
 44 389 44 389 75 443 c 0,9,10
 100 487 100 487 143 512 c 0,11,12
 189 538 189 538 250 538 c 256,13,14
 311 538 311 538 357 512 c 0,15,16
 400 487 400 487 425 443 c 0,17,18
 456 389 456 389 457 310 c 2,19,-1
 457 220 l 2,20,21
 456 141 456 141 425 87 c 0,22,23
 400 43 400 43 357 18 c 0,24,25
 311 -8 311 -8 250 -8 c 256,0,1
250 82 m 256,26,27
 278 82 278 82 300 94 c 0,28,29
 322 108 322 108 336 132 c 0,30,31
 356 166 356 166 357 220 c 2,32,-1
 357 310 l 2,33,34
 356 364 356 364 336 398 c 0,35,36
 322 422 322 422 300 436 c 0,37,38
 278 448 278 448 250 448 c 256,39,40
 222 448 222 448 200 436 c 0,41,42
 178 422 178 422 164 398 c 0,43,44
 144 364 144 364 143 310 c 2,45,-1
 143 220 l 2,46,47
 144 166 144 166 164 132 c 0,48,49
 178 108 178 108 200 94 c 0,50,51
 222 82 222 82 250 82 c 256,26,27
EndSplineSet
EndChar

StartChar: p
Encoding: 112 112 81
Width: 500
GlyphClass: 2
Flags: W
AnchorPoint: "Anclaje-5" 440 -205 basechar 0
AnchorPoint: "Anclaje-4" 440 530 basechar 0
AnchorPoint: "Anclaje-3" 250 162 basechar 0
AnchorPoint: "Anclaje-2" 250 177 basechar 0
AnchorPoint: "Anclaje-1" 250 -205 basechar 0
AnchorPoint: "Anclaje-0" 250 530 basechar 0
LayerCount: 2
Fore
SplineSet
24 -205 m 1,0,-1
 24 -115 l 1,1,-1
 59 -115 l 1,2,-1
 59 440 l 1,3,-1
 24 440 l 1,4,-1
 24 530 l 1,5,-1
 159 530 l 1,6,-1
 159 458 l 2,7,8
 160 461 160 461 162 464 c 0,9,10
 184 502 184 502 217 521 c 0,11,12
 246 538 246 538 285 538 c 0,13,14
 329 538 329 538 363 518 c 0,15,16
 400 497 400 497 423 457 c 0,17,18
 456 399 456 399 457 310 c 2,19,-1
 457 220 l 2,20,21
 456 131 456 131 423 73 c 0,22,23
 400 33 400 33 363 12 c 0,24,25
 329 -8 329 -8 285 -8 c 0,26,27
 279 -8 279 -8 274 -8 c 0,28,29
 242 -6 242 -6 217 9 c 0,30,31
 184 28 184 28 162 66 c 0,32,33
 160 69 160 69 159 72 c 2,34,-1
 159 -115 l 1,35,-1
 194 -115 l 1,36,-1
 194 -205 l 1,37,-1
 24 -205 l 1,0,-1
251 82 m 0,38,39
 278 82 278 82 300 94 c 0,40,41
 322 108 322 108 336 132 c 0,42,43
 356 166 356 166 357 220 c 2,44,-1
 357 310 l 2,45,46
 356 364 356 364 336 398 c 0,47,48
 322 422 322 422 300 436 c 0,49,50
 278 448 278 448 251 448 c 0,51,52
 229 448 229 448 212 439 c 0,53,54
 194 428 194 428 180 405 c 0,55,56
 160 369 160 369 159 310 c 2,57,-1
 159 220 l 2,58,59
 160 161 160 161 180 125 c 0,60,61
 194 102 194 102 212 91 c 0,62,63
 229 82 229 82 251 82 c 0,38,39
EndSplineSet
EndChar

StartChar: q
Encoding: 113 113 82
Width: 500
GlyphClass: 2
Flags: W
AnchorPoint: "Anclaje-5" 440 -205 basechar 0
AnchorPoint: "Anclaje-4" 440 530 basechar 0
AnchorPoint: "Anclaje-3" 250 162 basechar 0
AnchorPoint: "Anclaje-2" 250 177 basechar 0
AnchorPoint: "Anclaje-1" 250 -205 basechar 0
AnchorPoint: "Anclaje-0" 250 530 basechar 0
LayerCount: 2
Fore
SplineSet
306 -205 m 1,0,-1
 306 -115 l 1,1,-1
 341 -115 l 1,2,-1
 341 72 l 2,3,4
 340 69 340 69 338 66 c 0,5,6
 316 28 316 28 283 9 c 0,7,8
 254 -8 254 -8 215 -8 c 0,9,10
 171 -8 171 -8 137 12 c 0,11,12
 100 33 100 33 77 73 c 0,13,14
 44 131 44 131 43 220 c 2,15,-1
 43 310 l 2,16,17
 44 399 44 399 77 457 c 0,18,19
 100 497 100 497 137 518 c 0,20,21
 171 538 171 538 215 538 c 0,22,23
 254 538 254 538 283 521 c 0,24,25
 316 502 316 502 338 464 c 0,26,27
 340 461 340 461 341 458 c 2,28,-1
 341 530 l 1,29,-1
 476 530 l 1,30,-1
 476 440 l 1,31,-1
 441 440 l 1,32,-1
 441 -115 l 1,33,-1
 476 -115 l 1,34,-1
 476 -205 l 1,35,-1
 306 -205 l 1,0,-1
249 82 m 0,36,37
 271 82 271 82 288 91 c 0,38,39
 306 102 306 102 320 125 c 0,40,41
 340 161 340 161 341 220 c 2,42,-1
 341 310 l 2,43,44
 340 369 340 369 320 405 c 0,45,46
 306 428 306 428 288 439 c 0,47,48
 271 448 271 448 249 448 c 0,49,50
 222 448 222 448 200 436 c 0,51,52
 178 422 178 422 164 398 c 0,53,54
 144 364 144 364 143 310 c 2,55,-1
 143 220 l 2,56,57
 144 166 144 166 164 132 c 0,58,59
 178 108 178 108 200 94 c 0,60,61
 222 82 222 82 249 82 c 0,36,37
EndSplineSet
EndChar

StartChar: r
Encoding: 114 114 83
Width: 500
GlyphClass: 2
Flags: W
AnchorPoint: "Anclaje-5" 440 0 basechar 0
AnchorPoint: "Anclaje-4" 440 530 basechar 0
AnchorPoint: "Anclaje-3" 250 265 basechar 0
AnchorPoint: "Anclaje-2" 191 265 basechar 0
AnchorPoint: "Anclaje-1" 250 0 basechar 0
AnchorPoint: "Anclaje-0" 250 530 basechar 0
LayerCount: 2
Fore
SplineSet
63 0 m 1,0,-1
 63 90 l 1,1,-1
 114 90 l 1,2,-1
 114 440 l 1,3,-1
 63 440 l 1,4,-1
 63 530 l 1,5,-1
 214 530 l 1,6,-1
 214 433 l 1,7,8
 221 451 221 451 230 467 c 0,9,10
 253 506 253 506 284 523 c 0,11,12
 309 538 309 538 342 538 c 0,13,14
 377 538 377 538 407.5 520.5 c 128,-1,15
 438 503 438 503 455 472 c 0,16,17
 463 458 463 458 469 440 c 1,18,-1
 375 397 l 1,19,20
 370 416 370 416 356 429 c 0,21,22
 338 448 338 448 311 448 c 0,23,24
 290 448 290 448 275 439 c 0,25,26
 255 428 255 428 240 402 c 0,27,28
 215 357 215 357 214 281 c 2,29,-1
 214 90 l 1,30,-1
 304 90 l 1,31,-1
 304 0 l 1,32,-1
 63 0 l 1,0,-1
EndSplineSet
EndChar

StartChar: s
Encoding: 115 115 84
Width: 500
GlyphClass: 2
Flags: W
AnchorPoint: "Anclaje-5" 440 0 basechar 0
AnchorPoint: "Anclaje-4" 440 530 basechar 0
AnchorPoint: "Anclaje-3" 250 265 basechar 0
AnchorPoint: "Anclaje-2" 250 275 basechar 0
AnchorPoint: "Anclaje-1" 250 0 basechar 0
AnchorPoint: "Anclaje-0" 250 530 basechar 0
LayerCount: 2
Fore
SplineSet
249 -8 m 0,0,1
 179 -8 179 -8 133 19 c 0,2,3
 94 41 94 41 72 79 c 0,4,5
 64 93 64 93 58 110 c 1,6,-1
 152 141 l 1,7,8
 159 122 159 122 172 109 c 0,9,10
 199 82 199 82 249 82 c 0,11,12
 288 82 288 82 313 96 c 0,13,14
 328 105 328 105 336 118 c 0,15,16
 342 129 342 129 343 144 c 0,17,18
 342 161 342 161 334 175 c 0,19,20
 325 191 325 191 307 201 c 0,21,22
 286 214 286 214 232 220 c 0,23,24
 168 228 168 228 134 247 c 0,25,26
 99 268 99 268 79 303 c 0,27,28
 58 340 58 340 57 386 c 0,29,30
 58 427 58 427 75 457 c 0,31,32
 94 489 94 489 129 510 c 0,33,34
 178 538 178 538 251 538 c 0,35,36
 321 538 321 538 367 511 c 0,37,38
 406 489 406 489 428 451 c 0,39,40
 436 437 436 437 442 420 c 1,41,-1
 348 389 l 1,42,43
 341 408 341 408 328 421 c 0,44,45
 301 448 301 448 251 448 c 0,46,47
 212 448 212 448 187 434 c 0,48,49
 172 425 172 425 164 412 c 0,50,51
 158 401 158 401 157 386 c 0,52,53
 158 369 158 369 166 355 c 0,54,55
 175 339 175 339 193 329 c 0,56,57
 214 316 214 316 268 310 c 0,58,59
 332 302 332 302 366 283 c 0,60,61
 401 262 401 262 421 227 c 0,62,63
 442 190 442 190 443 144 c 0,64,65
 442 103 442 103 425 73 c 0,66,67
 406 41 406 41 371 20 c 0,68,69
 322 -8 322 -8 249 -8 c 0,0,1
EndSplineSet
EndChar

StartChar: t
Encoding: 116 116 85
Width: 500
GlyphClass: 2
Flags: W
AnchorPoint: "Anclaje-5" 484 155 basechar 0
AnchorPoint: "Anclaje-4" 440 735 basechar 0
AnchorPoint: "Anclaje-3" 250 367 basechar 0
AnchorPoint: "Anclaje-2" 250 382 basechar 0
AnchorPoint: "Anclaje-1" 303 0 basechar 0
AnchorPoint: "Anclaje-0" 250 735 basechar 0
LayerCount: 2
Fore
SplineSet
319 -8 m 256,0,1
 272 -8 272 -8 236.5 12.5 c 128,-1,2
 201 33 201 33 180 71 c 0,3,4
 150 122 150 122 150 198 c 2,5,-1
 150 440 l 1,6,-1
 50 440 l 1,7,-1
 50 530 l 1,8,-1
 150 530 l 1,9,-1
 150 735 l 1,10,-1
 250 735 l 1,11,-1
 250 530 l 1,12,-1
 400 530 l 1,13,-1
 400 440 l 1,14,-1
 250 440 l 1,15,-1
 250 198 l 2,16,17
 250 146 250 146 268 114 c 0,18,19
 278 97 278 97 292 89 c 0,20,21
 304 82 304 82 319 82 c 256,22,23
 334 82 334 82 346 89 c 0,24,25
 360 97 360 97 370 115 c 0,26,27
 385 140 385 140 388 177 c 1,28,-1
 485 155 l 1,29,30
 479 108 479 108 458 71 c 0,31,32
 436 32 436 32 400 12 c 0,33,34
 366 -8 366 -8 319 -8 c 256,0,1
EndSplineSet
Substitution2: "Single Substitution lookup 31 subtable" t.cv41
Substitution2: "'ss11' Style Set 11 lookup 30 subtable" t.ss11
EndChar

StartChar: u
Encoding: 117 117 86
Width: 500
GlyphClass: 2
Flags: W
AnchorPoint: "Anclaje-6" 398 0 basechar 0
AnchorPoint: "Anclaje-5" 440 0 basechar 0
AnchorPoint: "Anclaje-4" 440 530 basechar 0
AnchorPoint: "Anclaje-3" 250 265 basechar 0
AnchorPoint: "Anclaje-2" 250 275 basechar 0
AnchorPoint: "Anclaje-1" 250 0 basechar 0
AnchorPoint: "Anclaje-0" 250 530 basechar 0
LayerCount: 2
Fore
SplineSet
216 -8 m 256,0,1
 178 -8 178 -8 149 9 c 0,2,3
 116 28 116 28 94 66 c 0,4,5
 60 125 60 125 59 220 c 2,6,-1
 59 440 l 1,7,-1
 24 440 l 1,8,-1
 24 530 l 1,9,-1
 159 530 l 1,10,-1
 159 220 l 2,11,12
 160 161 160 161 180 125 c 0,13,14
 194 102 194 102 212 91 c 0,15,16
 229 82 229 82 250 82 c 256,17,18
 271 82 271 82 288 91 c 0,19,20
 306 102 306 102 320 125 c 0,21,22
 340 161 340 161 341 220 c 2,23,-1
 341 440 l 1,24,-1
 306 440 l 1,25,-1
 306 530 l 1,26,-1
 441 530 l 1,27,-1
 441 90 l 1,28,-1
 476 90 l 1,29,-1
 476 0 l 1,30,-1
 341 0 l 1,31,-1
 341 72 l 2,32,33
 340 69 340 69 338 66 c 0,34,35
 316 28 316 28 283 9 c 0,36,37
 254 -8 254 -8 216 -8 c 256,0,1
EndSplineSet
EndChar

StartChar: v
Encoding: 118 118 87
Width: 500
GlyphClass: 2
Flags: W
AnchorPoint: "Anclaje-5" 440 0 basechar 0
AnchorPoint: "Anclaje-4" 440 530 basechar 0
AnchorPoint: "Anclaje-3" 250 265 basechar 0
AnchorPoint: "Anclaje-2" 250 275 basechar 0
AnchorPoint: "Anclaje-1" 250 0 basechar 0
AnchorPoint: "Anclaje-0" 250 530 basechar 0
LayerCount: 2
Fore
SplineSet
190 0 m 1,0,1
 83 331 83 331 63 440 c 1,2,-1
 24 440 l 1,3,-1
 24 530 l 1,4,-1
 194 530 l 1,5,-1
 194 440 l 1,6,-1
 163 440 l 1,7,8
 179 350 179 350 250 111 c 1,9,10
 321 350 321 350 337 440 c 1,11,-1
 306 440 l 1,12,-1
 306 530 l 1,13,-1
 476 530 l 1,14,-1
 476 440 l 1,15,-1
 437 440 l 1,16,17
 417 331 417 331 310 0 c 1,18,-1
 190 0 l 1,0,1
EndSplineSet
EndChar

StartChar: w
Encoding: 119 119 88
Width: 500
GlyphClass: 2
Flags: W
AnchorPoint: "Anclaje-5" 440 0 basechar 0
AnchorPoint: "Anclaje-4" 440 530 basechar 0
AnchorPoint: "Anclaje-3" 250 265 basechar 0
AnchorPoint: "Anclaje-2" 250 275 basechar 0
AnchorPoint: "Anclaje-1" 250 0 basechar 0
AnchorPoint: "Anclaje-0" 250 530 basechar 0
LayerCount: 2
Fore
SplineSet
136 0 m 1,0,1
 60 276 60 276 59 398 c 2,2,-1
 59 440 l 1,3,-1
 24 440 l 1,4,-1
 24 530 l 1,5,-1
 194 530 l 1,6,-1
 194 440 l 1,7,-1
 159 440 l 1,8,-1
 159 398 l 2,9,10
 159 305 159 305 170 127 c 1,11,-1
 223 318 l 1,12,-1
 277 318 l 1,13,-1
 330 127 l 1,14,15
 341 305 341 305 341 398 c 2,16,-1
 341 440 l 1,17,-1
 306 440 l 1,18,-1
 306 530 l 1,19,-1
 476 530 l 1,20,-1
 476 440 l 1,21,-1
 441 440 l 1,22,-1
 441 398 l 2,23,24
 440 276 440 276 364 0 c 1,25,-1
 311 0 l 1,26,-1
 250 220 l 1,27,-1
 189 0 l 1,28,-1
 136 0 l 1,0,1
EndSplineSet
EndChar

StartChar: x
Encoding: 120 120 89
Width: 500
GlyphClass: 2
Flags: W
AnchorPoint: "Anclaje-5" 440 0 basechar 0
AnchorPoint: "Anclaje-4" 440 530 basechar 0
AnchorPoint: "Anclaje-3" 250 265 basechar 0
AnchorPoint: "Anclaje-2" 250 275 basechar 0
AnchorPoint: "Anclaje-1" 250 0 basechar 0
AnchorPoint: "Anclaje-0" 250 530 basechar 0
LayerCount: 2
Fore
SplineSet
24 0 m 1,0,-1
 24 90 l 1,1,-1
 87 90 l 1,2,3
 98 111 98 111 112 135 c 0,4,5
 115 140 115 140 118.5 146.5 c 128,-1,6
 122 153 122 153 123 155 c 2,7,-1
 193 265 l 1,8,-1
 123 375 l 2,9,10
 122 377 122 377 118.5 383.5 c 128,-1,11
 115 390 115 390 112 395 c 0,12,13
 98 419 98 419 87 440 c 1,14,-1
 24 440 l 1,15,-1
 24 530 l 1,16,-1
 194 530 l 1,17,-1
 194 446 l 1,18,19
 200 435 200 435 208 423 c 2,20,-1
 250 356 l 1,21,-1
 292 423 l 2,22,23
 300 435 300 435 306 446 c 1,24,-1
 306 530 l 1,25,-1
 476 530 l 1,26,-1
 476 440 l 1,27,-1
 413 440 l 1,28,29
 402 419 402 419 388 395 c 0,30,31
 385 390 385 390 381.5 383.5 c 128,-1,32
 378 377 378 377 377 375 c 2,33,-1
 307 265 l 1,34,-1
 377 155 l 2,35,36
 378 153 378 153 381.5 146.5 c 128,-1,37
 385 140 385 140 388 135 c 0,38,39
 402 111 402 111 413 90 c 1,40,-1
 476 90 l 1,41,-1
 476 0 l 1,42,-1
 306 0 l 1,43,-1
 306 84 l 1,44,45
 300 95 300 95 292 107 c 2,46,-1
 250 174 l 1,47,-1
 208 107 l 2,48,49
 200 95 200 95 194 84 c 1,50,-1
 194 0 l 1,51,-1
 24 0 l 1,0,-1
EndSplineSet
EndChar

StartChar: y
Encoding: 121 121 90
Width: 500
GlyphClass: 2
Flags: W
AnchorPoint: "Anclaje-5" 440 -205 basechar 0
AnchorPoint: "Anclaje-4" 440 530 basechar 0
AnchorPoint: "Anclaje-3" 250 162 basechar 0
AnchorPoint: "Anclaje-2" 250 177 basechar 0
AnchorPoint: "Anclaje-1" 250 -205 basechar 0
AnchorPoint: "Anclaje-0" 250 530 basechar 0
LayerCount: 2
Fore
SplineSet
90 -205 m 1,0,-1
 90 -115 l 1,1,-1
 135 -115 l 2,2,3
 157 -115 157 -115 168 -104 c 0,4,5
 177 -96 177 -96 186 -67 c 2,6,-1
 203 -11 l 1,7,-1
 89 334 l 2,8,9
 70 391 70 391 63 440 c 1,10,-1
 24 440 l 1,11,-1
 24 530 l 1,12,-1
 194 530 l 1,13,-1
 194 440 l 1,14,-1
 165 440 l 1,15,16
 171 405 171 405 184 361 c 2,17,-1
 250 144 l 1,18,-1
 316 361 l 2,19,20
 329 405 329 405 335 440 c 1,21,-1
 306 440 l 1,22,-1
 306 530 l 1,23,-1
 476 530 l 1,24,-1
 476 440 l 1,25,-1
 437 440 l 1,26,27
 430 391 430 391 411 334 c 2,28,-1
 271 -91 l 2,29,30
 259 -130 259 -130 248 -149 c 0,31,32
 232 -176 232 -176 208 -190 c 0,33,34
 182 -205 182 -205 135 -205 c 2,35,-1
 90 -205 l 1,0,-1
EndSplineSet
Substitution2: "Single Substitution lookup 20 subtable" y.cv49
Substitution2: "'ss11' Style Set 11 lookup 19 subtable" y.ss11
EndChar

StartChar: z
Encoding: 122 122 91
Width: 500
GlyphClass: 2
Flags: W
AnchorPoint: "Anclaje-5" 440 0 basechar 0
AnchorPoint: "Anclaje-4" 440 530 basechar 0
AnchorPoint: "Anclaje-3" 250 265 basechar 0
AnchorPoint: "Anclaje-2" 250 275 basechar 0
AnchorPoint: "Anclaje-1" 250 0 basechar 0
AnchorPoint: "Anclaje-0" 250 530 basechar 0
LayerCount: 2
Fore
SplineSet
59 0 m 1,0,-1
 59 90 l 1,1,-1
 321 440 l 1,2,-1
 159 440 l 1,3,-1
 159 385 l 1,4,-1
 59 385 l 1,5,-1
 59 530 l 1,6,-1
 441 530 l 1,7,-1
 441 440 l 1,8,-1
 179 90 l 1,9,-1
 341 90 l 1,10,-1
 341 145 l 1,11,-1
 441 145 l 1,12,-1
 441 0 l 1,13,-1
 59 0 l 1,0,-1
EndSplineSet
EndChar

StartChar: braceleft
Encoding: 123 123 92
Width: 500
GlyphClass: 2
Flags: W
LayerCount: 2
Fore
SplineSet
422 -179 m 1,0,1
 322 -179 322 -179 257 -141 c 0,2,3
 211 -115 211 -115 187 -74 c 0,4,5
 166 -35 166 -35 166 14 c 128,-1,6
 166 63 166 63 195 137 c 0,7,8
 217 192 217 192 217 221 c 0,9,10
 217 246 217 246 206 265 c 0,11,12
 194 285 194 285 170 299 c 0,13,14
 135 320 135 320 78 320 c 1,15,-1
 78 410 l 1,16,17
 135 410 135 410 170 431 c 0,18,19
 194 445 194 445 206 465 c 0,20,21
 217 484 217 484 217 509 c 0,22,23
 217 538 217 538 195 593 c 0,24,25
 166 667 166 667 166 716 c 128,-1,26
 166 765 166 765 187 804 c 0,27,28
 211 845 211 845 257 871 c 0,29,30
 322 909 322 909 422 909 c 1,31,-1
 422 819 l 1,32,33
 356 819 356 819 314 795 c 0,34,35
 289 780 289 780 276 759 c 0,36,37
 266 740 266 740 266 716 c 0,38,39
 266 688 266 688 287 633 c 0,40,41
 317 558 317 558 317 509 c 0,42,43
 317 458 317 458 295 420 c 0,44,45
 277 388 277 388 244 365 c 1,46,47
 277 342 277 342 295 310 c 0,48,49
 317 272 317 272 317 221 c 0,50,51
 317 172 317 172 287 97 c 0,52,53
 266 42 266 42 266 14 c 0,54,55
 266 -10 266 -10 276 -29 c 0,56,57
 289 -50 289 -50 314 -65 c 0,58,59
 356 -89 356 -89 422 -89 c 1,60,-1
 422 -179 l 1,0,1
EndSplineSet
Substitution2: "'ss10' Style Set 10 lookup 42 subtable" braceleft.ss10
Substitution2: "'ss11' Style Set 11 lookup 41 subtable" braceleft.ss11
EndChar

StartChar: bar
Encoding: 124 124 93
Width: 500
GlyphClass: 2
Flags: W
AnchorPoint: "Anclaje-1" 250 -168 basechar 0
AnchorPoint: "Anclaje-0" 250 898 basechar 0
LayerCount: 2
Fore
SplineSet
200 -168 m 1,0,-1
 200 898 l 1,1,-1
 300 898 l 1,2,-1
 300 -168 l 1,3,-1
 200 -168 l 1,0,-1
EndSplineSet
EndChar

StartChar: braceright
Encoding: 125 125 94
Width: 500
GlyphClass: 2
Flags: W
LayerCount: 2
Fore
SplineSet
78 -179 m 1,0,-1
 78 -89 l 1,1,2
 144 -89 144 -89 186 -65 c 0,3,4
 211 -50 211 -50 224 -29 c 0,5,6
 234 -10 234 -10 234 14 c 0,7,8
 234 42 234 42 213 97 c 0,9,10
 183 172 183 172 183 221 c 0,11,12
 183 272 183 272 205 310 c 0,13,14
 223 342 223 342 256 365 c 1,15,16
 223 388 223 388 205 420 c 0,17,18
 183 458 183 458 183 509 c 0,19,20
 183 558 183 558 213 633 c 0,21,22
 234 688 234 688 234 716 c 0,23,24
 234 740 234 740 224 759 c 0,25,26
 211 780 211 780 186 795 c 0,27,28
 144 819 144 819 78 819 c 1,29,-1
 78 909 l 1,30,31
 178 909 178 909 243 871 c 0,32,33
 289 845 289 845 313 804 c 0,34,35
 334 765 334 765 334 716 c 128,-1,36
 334 667 334 667 305 593 c 0,37,38
 283 538 283 538 283 509 c 0,39,40
 283 484 283 484 294 465 c 0,41,42
 306 445 306 445 330 431 c 0,43,44
 365 410 365 410 422 410 c 1,45,-1
 422 320 l 1,46,47
 365 320 365 320 330 299 c 0,48,49
 306 285 306 285 294 265 c 0,50,51
 283 246 283 246 283 221 c 0,52,53
 283 192 283 192 305 137 c 0,54,55
 334 63 334 63 334 14 c 128,-1,56
 334 -35 334 -35 313 -74 c 0,57,58
 289 -115 289 -115 243 -141 c 0,59,60
 178 -179 178 -179 78 -179 c 1,0,-1
EndSplineSet
Substitution2: "'ss10' Style Set 10 lookup 42 subtable" braceright.ss10
Substitution2: "'ss11' Style Set 11 lookup 41 subtable" braceright.ss11
EndChar

StartChar: asciitilde
Encoding: 126 126 95
Width: 500
GlyphClass: 2
Flags: W
AnchorPoint: "Anclaje-5" 440 0 basechar 0
AnchorPoint: "Anclaje-4" 440 530 basechar 0
AnchorPoint: "Anclaje-3" 250 365 basechar 0
AnchorPoint: "Anclaje-2" 250 373 basechar 0
AnchorPoint: "Anclaje-1" 250 155 basechar 0
AnchorPoint: "Anclaje-0" 250 574 basechar 0
LayerCount: 2
Fore
SplineSet
324 242 m 0,0,1
 300 242 300 242 279 254 c 0,2,3
 251 270 251 270 211 330 c 0,4,5
 188 365 188 365 176 377 c 1,6,7
 161 364 161 364 141.5 331 c 128,-1,8
 122 298 122 298 101 246 c 1,9,-1
 18 277 l 1,10,11
 41 331 41 331 62 367 c 0,12,13
 96 426 96 426 131 447 c 0,14,15
 153 459 153 459 176 459 c 0,16,17
 200 459 200 459 221 447 c 0,18,19
 250 430 250 430 288 371 c 0,20,21
 313 335 313 335 324 325 c 1,22,23
 339 337 339 337 358.5 370.5 c 128,-1,24
 378 404 378 404 399 456 c 1,25,-1
 482 424 l 1,26,27
 459 370 459 370 438 334 c 0,28,29
 404 275 404 275 369 254 c 0,30,31
 347 242 347 242 324 242 c 0,0,1
EndSplineSet
Substitution2: "'ss10' Style Set 10 lookup 55 subtable" asciitilde.ss10
Substitution2: "'ss11' Style Set 11 lookup 54 subtable" asciitilde.ss11
EndChar

StartChar: exclamdown
Encoding: 161 161 97
Width: 500
GlyphClass: 2
Flags: W
LayerCount: 2
Fore
SplineSet
250 382 m 256,0,1
 225 382 225 382 207 392 c 0,2,3
 192 401 192 401 182 417 c 0,4,5
 172 435 172 435 172 460 c 128,-1,6
 172 485 172 485 182 503 c 0,7,8
 192 519 192 519 207 528 c 0,9,10
 225 538 225 538 250 538 c 256,11,12
 275 538 275 538 293 528 c 0,13,14
 308 519 308 519 318 503 c 0,15,16
 328 485 328 485 328 460 c 128,-1,17
 328 435 328 435 318 417 c 0,18,19
 308 401 308 401 293 392 c 0,20,21
 275 382 275 382 250 382 c 256,0,1
200 -205 m 1,22,-1
 200 270 l 1,23,-1
 300 270 l 1,24,-1
 300 -205 l 1,25,-1
 200 -205 l 1,22,-1
EndSplineSet
EndChar

StartChar: periodcentered
Encoding: 183 183 101
Width: 500
GlyphClass: 2
Flags: W
LayerCount: 2
Fore
SplineSet
250 275 m 256,0,1
 221 275 221 275 200 286 c 0,2,3
 182 297 182 297 171 315 c 0,4,5
 159 337 159 337 160 365 c 0,6,7
 159 393 159 393 171 415 c 0,8,9
 182 433 182 433 200 444 c 0,10,11
 221 455 221 455 250 456 c 0,12,13
 279 456 279 456 300 444 c 0,14,15
 318 433 318 433 329 415 c 0,16,17
 340 394 340 394 341 365 c 0,18,19
 340 336 340 336 329 315 c 0,20,21
 318 297 318 297 300 286 c 0,22,23
 279 275 279 275 250 275 c 256,0,1
EndSplineSet
EndChar

StartChar: questiondown
Encoding: 191 191 103
Width: 500
GlyphClass: 2
Flags: W
LayerCount: 2
Fore
SplineSet
250 382 m 256,0,1
 225 382 225 382 207 392 c 0,2,3
 192 401 192 401 182 417 c 0,4,5
 172 435 172 435 172 460 c 128,-1,6
 172 485 172 485 182 503 c 0,7,8
 192 519 192 519 207 528 c 0,9,10
 225 538 225 538 250 538 c 256,11,12
 275 538 275 538 293 528 c 0,13,14
 308 519 308 519 318 503 c 0,15,16
 328 485 328 485 328 460 c 128,-1,17
 328 435 328 435 318 417 c 0,18,19
 308 401 308 401 293 392 c 0,20,21
 275 382 275 382 250 382 c 256,0,1
253 -213 m 0,22,23
 190 -213 190 -213 146 -187 c 0,24,25
 107 -165 107 -165 84 -126 c 0,26,27
 59 -82 59 -82 59 -29 c 0,28,29
 59 30 59 30 92 87 c 0,30,31
 106 111 106 111 138 151 c 0,32,33
 166 187 166 187 176 205 c 0,34,35
 200 247 200 247 200 310 c 1,36,-1
 300 309 l 1,37,38
 300 223 300 223 269 168 c 0,39,40
 257 149 257 149 230 113 c 0,41,42
 227 108 227 108 225 106 c 0,43,44
 195 69 195 69 183 48 c 0,45,46
 159 7 159 7 159 -31 c 0,47,48
 159 -59 159 -59 172 -81 c 0,49,50
 182 -100 182 -100 202 -111 c 0,51,52
 223 -123 223 -123 253 -123 c 0,53,54
 286 -123 286 -123 308 -110 c 0,55,56
 327 -99 327 -99 337 -81.5 c 128,-1,57
 347 -64 347 -64 347 -44 c 0,58,59
 347 -42 347 -42 347 -38 c 2,60,-1
 347 -36 l 1,61,-1
 446 -51 l 1,62,63
 445 -92 445 -92 425 -128 c 0,64,65
 403 -165 403 -165 366 -186 c 0,66,67
 320 -213 320 -213 253 -213 c 0,22,23
EndSplineSet
EndChar

StartChar: dotlessi
Encoding: 307 305 118
Width: 500
GlyphClass: 2
Flags: W
AnchorPoint: "Anclaje-5" 440 0 basechar 0
AnchorPoint: "Anclaje-4" 440 530 basechar 0
AnchorPoint: "Anclaje-3" 250 265 basechar 0
AnchorPoint: "Anclaje-2" 250 275 basechar 0
AnchorPoint: "Anclaje-1" 250 0 basechar 0
AnchorPoint: "Anclaje-0" 250 530 basechar 0
LayerCount: 2
Fore
SplineSet
75 0 m 1,0,-1
 75 90 l 1,1,-1
 207 90 l 1,2,-1
 207 440 l 1,3,-1
 89 440 l 1,4,-1
 89 530 l 1,5,-1
 307 530 l 1,6,-1
 307 90 l 1,7,-1
 425 90 l 1,8,-1
 425 0 l 1,9,-1
 75 0 l 1,0,-1
EndSplineSet
Substitution2: "'cv04' Character Variants 04 lookup 10 subtable" dotlessi.cv04
Substitution2: "'ss11' Style Set 11 lookup 9 subtable" dotlessi.ss11
Substitution2: "'ss07' Style Set 7 lookup 8 subtable" dotlessi.ss07
Substitution2: "'ss10' Style Set 10 lookup 7 subtable" dotlessi.ss10
EndChar

StartChar: uni0261
Encoding: 603 609 119
Width: 500
GlyphClass: 2
Flags: W
AnchorPoint: "Anclaje-5" 440 -205 basechar 0
AnchorPoint: "Anclaje-4" 440 530 basechar 0
AnchorPoint: "Anclaje-3" 250 162 basechar 0
AnchorPoint: "Anclaje-2" 250 177 basechar 0
AnchorPoint: "Anclaje-1" 250 -205 basechar 0
AnchorPoint: "Anclaje-0" 250 530 basechar 0
LayerCount: 2
Fore
SplineSet
238 -213 m 256,0,1
 178 -213 178 -213 134 -188 c 0,2,3
 92 -163 92 -163 66 -119 c 0,4,5
 60 -108 60 -108 54 -95 c 1,6,-1
 144 -55 l 1,7,8
 147 -65 147 -65 153 -74 c 0,9,10
 167 -98 167 -98 189 -111 c 0,11,12
 210 -123 210 -123 238 -123 c 0,13,14
 264 -123 264 -123 284 -111 c 0,15,16
 306 -99 306 -99 320 -74 c 0,17,18
 340 -40 340 -40 341 15 c 2,19,-1
 341 72 l 2,20,21
 340 69 340 69 338 66 c 0,22,23
 316 28 316 28 283 9 c 0,24,25
 254 -8 254 -8 215 -8 c 0,26,27
 171 -8 171 -8 137 12 c 0,28,29
 100 33 100 33 77 73 c 0,30,31
 44 131 44 131 43 220 c 2,32,-1
 43 310 l 2,33,34
 44 399 44 399 77 457 c 0,35,36
 100 497 100 497 137 518 c 0,37,38
 171 538 171 538 215 538 c 0,39,40
 254 538 254 538 283 521 c 0,41,42
 316 502 316 502 338 464 c 0,43,44
 340 461 340 461 341 458 c 2,45,-1
 341 530 l 1,46,-1
 476 530 l 1,47,-1
 476 440 l 1,48,-1
 441 440 l 1,49,-1
 441 15 l 2,50,51
 440 -64 440 -64 409 -120 c 0,52,53
 383 -164 383 -164 341 -188 c 0,54,55
 298 -213 298 -213 238 -213 c 256,0,1
249 82 m 0,56,57
 271 82 271 82 288 91 c 0,58,59
 306 102 306 102 320 125 c 0,60,61
 340 161 340 161 341 220 c 2,62,-1
 341 310 l 2,63,64
 340 369 340 369 320 405 c 0,65,66
 306 428 306 428 288 439 c 0,67,68
 271 448 271 448 249 448 c 0,69,70
 222 448 222 448 200 436 c 0,71,72
 178 422 178 422 164 398 c 0,73,74
 144 364 144 364 143 310 c 2,75,-1
 143 220 l 2,76,77
 144 166 144 166 164 132 c 0,78,79
 178 108 178 108 200 94 c 0,80,81
 222 82 222 82 249 82 c 0,56,57
EndSplineSet
EndChar

StartChar: uni02BB
Encoding: 693 699 120
Width: 500
GlyphClass: 2
Flags: W
LayerCount: 2
Fore
SplineSet
250 442 m 256,0,1
 224 442 224 442 204 453 c 0,2,3
 187 463 187 463 178 480 c 0,4,5
 167 499 167 499 167 526 c 0,6,7
 167 621 167 621 222 716 c 0,8,9
 243 753 243 753 273 790 c 1,10,-1
 338 742 l 1,11,12
 313 710 313 710 296 681 c 0,13,14
 275 644 275 644 264 608 c 1,15,16
 282 606 282 606 296 598 c 0,17,18
 313 588 313 588 322 571 c 0,19,20
 333 552 333 552 333 525.5 c 128,-1,21
 333 499 333 499 322 480 c 0,22,23
 313 463 313 463 296 453 c 0,24,25
 276 442 276 442 250 442 c 256,0,1
EndSplineSet
EndChar

StartChar: uni02BC
Encoding: 694 700 121
Width: 500
GlyphClass: 2
Flags: W
LayerCount: 2
Fore
SplineSet
227 432 m 1,0,-1
 162 480 l 1,1,2
 187 512 187 512 204 541 c 0,3,4
 225 578 225 578 236 614 c 1,5,6
 218 616 218 616 204 624 c 0,7,8
 187 634 187 634 178 651 c 0,9,10
 167 670 167 670 167 696.5 c 128,-1,11
 167 723 167 723 178 742 c 0,12,13
 187 759 187 759 204 769 c 0,14,15
 224 780 224 780 250 780 c 256,16,17
 276 780 276 780 296 769 c 0,18,19
 313 759 313 759 322 742 c 0,20,21
 333 723 333 723 333 697 c 0,22,23
 333 601 333 601 278 506 c 0,24,25
 257 469 257 469 227 432 c 1,0,-1
EndSplineSet
EndChar

StartChar: acutecomb
Encoding: 737 769 122
Width: 0
GlyphClass: 4
Flags: W
AnchorPoint: "Anclaje-8" -250 743 basemark 0
AnchorPoint: "Anclaje-8" -250 530 mark 0
AnchorPoint: "Anclaje-0" -250 530 mark 0
LayerCount: 2
Fore
SplineSet
-265 558 m 1,0,-1
 -328 610 l 1,1,-1
 -188 776 l 1,2,-1
 -112 712 l 1,3,-1
 -265 558 l 1,0,-1
EndSplineSet
EndChar

StartChar: tildecomb
Encoding: 739 771 123
Width: 0
GlyphClass: 4
Flags: W
AnchorPoint: "Anclaje-8" -250 743 basemark 0
AnchorPoint: "Anclaje-8" -250 530 mark 0
AnchorPoint: "Anclaje-0" -250 530 mark 0
LayerCount: 2
Fore
SplineSet
-193 585 m 0,0,1
 -214 585 -214 585 -232 596 c 0,2,3
 -255 609 -255 609 -286 653 c 0,4,5
 -300 673 -300 673 -308 682 c 1,6,7
 -330 659 -330 659 -361 588 c 1,8,-1
 -439 619 l 1,9,10
 -422 657 -422 657 -407 683 c 0,11,12
 -378 733 -378 733 -348 751 c 0,13,14
 -337 757 -337 757 -327.5 759.5 c 128,-1,15
 -318 762 -318 762 -307 762 c 0,16,17
 -286 762 -286 762 -268 751 c 0,18,19
 -245 738 -245 738 -214 694 c 0,20,21
 -200 674 -200 674 -192 666 c 1,22,23
 -170 689 -170 689 -139 759 c 1,24,-1
 -61 729 l 1,25,26
 -78 691 -78 691 -93 664 c 0,27,28
 -122 614 -122 614 -152 596 c 0,29,30
 -163 591 -163 591 -172.5 588 c 128,-1,31
 -182 585 -182 585 -193 585 c 0,0,1
EndSplineSet
EndChar

StartChar: uni0307
Encoding: 743 775 124
Width: 0
GlyphClass: 4
Flags: W
AnchorPoint: "Anclaje-8" -250 743 basemark 0
AnchorPoint: "Anclaje-8" -250 530 mark 0
AnchorPoint: "Anclaje-0" -250 530 mark 0
LayerCount: 2
Fore
SplineSet
-250 615 m 256,0,1
 -273 615 -273 615 -288 624 c 0,2,3
 -302 632 -302 632 -311 647 c 0,4,5
 -320 663 -320 663 -320 685 c 128,-1,6
 -320 707 -320 707 -311 723 c 0,7,8
 -302 738 -302 738 -288 746 c 0,9,10
 -273 755 -273 755 -250 755 c 256,11,12
 -227 755 -227 755 -212 746 c 0,13,14
 -198 738 -198 738 -189 723 c 0,15,16
 -180 707 -180 707 -180 685 c 128,-1,17
 -180 663 -180 663 -189 647 c 0,18,19
 -198 632 -198 632 -212 624 c 0,20,21
 -227 615 -227 615 -250 615 c 256,0,1
EndSplineSet
EndChar

StartChar: uni030C
Encoding: 748 780 126
Width: 0
GlyphClass: 4
Flags: W
AnchorPoint: "Anclaje-8" -250 743 basemark 0
AnchorPoint: "Anclaje-8" -250 530 mark 0
AnchorPoint: "Anclaje-0" -250 530 mark 0
LayerCount: 2
Fore
SplineSet
-302 566 m 1,0,-1
 -437 714 l 1,1,-1
 -357 774 l 1,2,-1
 -250 634 l 1,3,-1
 -143 774 l 1,4,-1
 -63 714 l 1,5,-1
 -198 566 l 1,6,-1
 -302 566 l 1,0,-1
EndSplineSet
EndChar

StartChar: emdash
Encoding: 151 8212 127
Width: 500
GlyphClass: 2
Flags: W
LayerCount: 2
Fore
SplineSet
0 320 m 1,0,-1
 0 410 l 1,1,-1
 500 410 l 1,2,-1
 500 320 l 1,3,-1
 0 320 l 1,0,-1
EndSplineSet
EndChar

StartChar: guilsinglleft
Encoding: 139 8249 133
Width: 500
GlyphClass: 2
Flags: W
LayerCount: 2
Fore
SplineSet
293 83 m 1,0,1
 272 143 272 143 240 199 c 0,2,3
 193 281 193 281 126 324 c 1,4,-1
 126 406 l 1,5,6
 193 449 193 449 240 531 c 0,7,8
 272 587 272 587 293 647 c 1,9,-1
 378 616 l 1,10,11
 361 578 361 578 340 541 c 0,12,13
 275 428 275 428 192 365 c 1,14,15
 275 302 275 302 340 189 c 0,16,17
 361 152 361 152 378 114 c 1,18,-1
 293 83 l 1,0,1
EndSplineSet
EndChar

StartChar: guilsinglright
Encoding: 155 8250 134
Width: 500
GlyphClass: 2
Flags: W
LayerCount: 2
Fore
SplineSet
207 83 m 1,0,-1
 122 114 l 1,1,2
 139 152 139 152 160 189 c 0,3,4
 225 302 225 302 308 365 c 1,5,6
 225 428 225 428 160 541 c 0,7,8
 139 578 139 578 122 616 c 1,9,-1
 207 647 l 1,10,11
 228 587 228 587 260 531 c 0,12,13
 307 449 307 449 374 406 c 1,14,-1
 374 324 l 1,15,16
 307 281 307 281 260 199 c 0,17,18
 228 143 228 143 207 83 c 1,0,-1
EndSplineSet
EndChar

StartChar: arrowright
Encoding: 1888 8594 135
Width: 500
GlyphClass: 2
Flags: W
AnchorPoint: "Anclaje-3" 205 365 basechar 0
LayerCount: 2
Fore
SplineSet
340 211 m 1,0,-1
 306 245 l 1,1,-1
 374 320 l 1,2,-1
 30 320 l 1,3,-1
 30 410 l 1,4,-1
 374 410 l 1,5,-1
 306 485 l 1,6,-1
 340 519 l 1,7,-1
 494 365 l 1,8,-1
 340 211 l 1,0,-1
EndSplineSet
EndChar

StartChar: infinity
Encoding: 1974 8734 136
Width: 500
GlyphClass: 2
Flags: W
LayerCount: 2
Fore
SplineSet
147 322 m 0,0,1
 160 322 160 322 172 330 c 0,2,3
 190 340 190 340 206 365 c 1,4,5
 190 390 190 390 172 400 c 0,6,7
 160 408 160 408 147 408 c 0,8,9
 132 408 132 408 122 398 c 0,10,11
 110 386 110 386 111 365 c 0,12,13
 110 344 110 344 122 332 c 0,14,15
 132 322 132 322 147 322 c 0,0,1
349 312 m 0,16,17
 364 312 364 312 375 322 c 0,18,19
 390 337 390 337 389 365 c 0,20,21
 390 393 390 393 375 408 c 0,22,23
 364 418 364 418 349 418 c 0,24,25
 336 418 336 418 323 411 c 0,26,27
 303 399 303 399 285 369 c 0,28,29
 284 367 284 367 283 365 c 0,30,31
 284 363 284 363 285 361 c 0,32,33
 303 331 303 331 323 319 c 0,34,35
 336 312 336 312 349 312 c 0,16,17
348 232 m 0,36,37
 319 232 319 232 293 247 c 0,38,39
 266 263 266 263 244 296 c 1,40,41
 226 271 226 271 203 258 c 0,42,43
 177 243 177 243 148 243 c 0,44,45
 117 243 117 243 93 257 c 0,46,47
 69 270 69 270 56 294 c 0,48,49
 39 323 39 323 39 365 c 128,-1,50
 39 407 39 407 56 436 c 0,51,52
 69 460 69 460 93 473 c 0,53,54
 117 487 117 487 148 487 c 0,55,56
 177 487 177 487 203 472 c 0,57,58
 226 459 226 459 244 434 c 1,59,60
 266 467 266 467 293 483 c 0,61,62
 319 498 319 498 348 498 c 0,63,64
 378 498 378 498 404 483 c 0,65,66
 428 469 428 469 443 444 c 0,67,68
 461 411 461 411 461 365 c 128,-1,69
 461 319 461 319 443 286 c 0,70,71
 428 261 428 261 404 247 c 0,72,73
 378 232 378 232 348 232 c 0,36,37
EndSplineSet
EndChar

StartChar: at.ss11
Encoding: 3064 -1 139
Width: 500
GlyphClass: 2
Flags: W
LayerCount: 2
Fore
SplineSet
250 -176 m 2,0,1
 193 -176 193 -176 151 -152 c 0,2,3
 112 -129 112 -129 89 -88 c 0,4,5
 60 -38 60 -38 59 35 c 2,6,-1
 59 695 l 2,7,8
 60 768 60 768 89 818 c 0,9,10
 112 859 112 859 152 882 c 0,11,12
 193 906 193 906 250 906 c 256,13,14
 307 906 307 906 348 882 c 0,15,16
 388 859 388 859 411 818 c 0,17,18
 440 768 440 768 441 695 c 2,19,-1
 441 185 l 2,20,21
 440 128 440 128 419 91 c 0,22,23
 404 64 404 64 379 50 c 0,24,25
 357 37 357 37 326 37 c 0,26,27
 292 37 292 37 265 52 c 0,28,29
 240 67 240 67 223 95 c 0,30,31
 203 131 203 131 202 185 c 2,32,-1
 202 492 l 2,33,34
 203 546 203 546 223 582 c 0,35,36
 240 610 240 610 265 624 c 0,37,38
 291 640 291 640 326 640 c 2,39,-1
 349 640 l 1,40,-1
 349 695 l 2,41,42
 350 739 350 739 332 769 c 0,43,44
 319 792 319 792 298.5 804 c 128,-1,45
 278 816 278 816 250 816 c 256,46,47
 222 816 222 816 201.5 804 c 128,-1,48
 181 792 181 792 168 769 c 0,49,50
 150 739 150 739 151 695 c 2,51,-1
 151 35 l 2,52,53
 150 -9 150 -9 168 -39 c 0,54,55
 181 -62 181 -62 201 -74 c 0,56,57
 223 -86 223 -86 250 -86 c 2,58,-1
 396 -86 l 1,59,-1
 396 -176 l 1,60,-1
 250 -176 l 2,0,1
325 119 m 0,61,62
 331 119 331 119 335 123 c 0,63,64
 350 137 350 137 349 185 c 2,65,-1
 349 558 l 1,66,-1
 326 558 l 2,67,68
 317 558 317 558 310 550 c 0,69,70
 293 534 293 534 294 492 c 2,71,-1
 294 185 l 2,72,73
 293 142 293 142 310 126 c 0,74,75
 317 119 317 119 325 119 c 0,61,62
EndSplineSet
EndChar

StartChar: glyph3483
Encoding: 3520 -1 140
Width: 0
GlyphClass: 2
Flags: W
LayerCount: 2
Fore
SplineSet
248 -4 m 0,0,1
 204 -4 204 -4 174 13 c 0,2,3
 148 28 148 28 135 52 c 0,4,5
 120 77 120 77 120 112 c 2,6,-1
 120 293 l 2,7,8
 120 328 120 328 135 353 c 0,9,10
 148 377 148 377 174 391 c 0,11,12
 204 409 204 409 248 409 c 0,13,14
 293 409 293 409 323 391 c 0,15,16
 347 377 347 377 362 352 c 0,17,18
 371 336 371 336 374 319 c 1,19,-1
 305 302 l 1,20,21
 302 317 302 317 291 329 c 0,22,23
 276 344 276 344 248 344 c 0,24,25
 221 344 221 344 206 329 c 0,26,27
 192 315 192 315 192 293 c 2,28,-1
 192 112 l 2,29,30
 192 89 192 89 206 76 c 0,31,32
 221 60 221 60 248 60 c 0,33,34
 276 60 276 60 291 76 c 0,35,36
 302 87 302 87 305 103 c 1,37,-1
 374 85 l 1,38,39
 371 68 371 68 362 52 c 0,40,41
 347 27 347 27 323 13 c 0,42,43
 293 -4 293 -4 248 -4 c 0,0,1
EndSplineSet
EndChar

StartChar: glyph3487
Encoding: 3524 -1 141
Width: 500
GlyphClass: 2
Flags: W
LayerCount: 2
Fore
SplineSet
250 -17 m 256,0,1
 175 -17 175 -17 123 13 c 0,2,3
 76 40 76 40 50 86 c 0,4,5
 20 137 20 137 19 211 c 2,6,-1
 19 519 l 2,7,8
 20 593 20 593 50 644 c 0,9,10
 76 690 76 690 123 717 c 0,11,12
 175 747 175 747 250 747 c 256,13,14
 325 747 325 747 377 717 c 0,15,16
 424 690 424 690 450 644 c 0,17,18
 480 593 480 593 481 519 c 2,19,-1
 481 211 l 2,20,21
 480 137 480 137 450 86 c 0,22,23
 424 40 424 40 377 13 c 0,24,25
 325 -17 325 -17 250 -17 c 256,0,1
250 40 m 256,26,27
 303 40 303 40 340 62 c 0,28,29
 374 81 374 81 394 116 c 0,30,31
 417 155 417 155 417 211 c 2,32,-1
 417 519 l 2,33,34
 417 575 417 575 394 614 c 0,35,36
 374 649 374 649 340 668 c 0,37,38
 303 690 303 690 250 690 c 256,39,40
 197 690 197 690 160 668 c 0,41,42
 126 649 126 649 106 614 c 0,43,44
 83 575 83 575 83 519 c 2,45,-1
 83 211 l 2,46,47
 83 155 83 155 106 116 c 0,48,49
 126 81 126 81 160 62 c 0,50,51
 197 40 197 40 250 40 c 256,26,27
EndSplineSet
EndChar

StartChar: glyph3556
Encoding: 3593 -1 142
Width: 0
GlyphClass: 2
Flags: W
LayerCount: 2
Fore
SplineSet
118 0 m 1,0,-1
 118 65 l 1,1,-1
 129 65 l 1,2,-1
 129 339 l 1,3,-1
 118 339 l 1,4,-1
 118 404 l 1,5,-1
 263 404 l 2,6,7
 300 404 300 404 327 389 c 0,8,9
 350 375 350 375 364 351 c 0,10,11
 380 324 380 324 380 284.5 c 128,-1,12
 380 245 380 245 364 218 c 0,13,14
 350 194 350 194 327 180 c 0,15,16
 317 174 317 174 306 171 c 1,17,18
 340 109 340 109 356 65 c 1,19,-1
 382 65 l 1,20,-1
 382 0 l 1,21,-1
 298 0 l 1,22,23
 298 46 298 46 242 143 c 0,24,25
 241 144 241 144 240 146 c 0,26,27
 233 158 233 158 229 165 c 1,28,-1
 201 165 l 1,29,-1
 201 65 l 1,30,-1
 212 65 l 1,31,-1
 212 0 l 1,32,-1
 118 0 l 1,0,-1
263 229 m 2,33,34
 281 229 281 229 293 241 c 0,35,36
 308 256 308 256 308 284.5 c 128,-1,37
 308 313 308 313 293 328 c 0,38,39
 281 339 281 339 263 339 c 2,40,-1
 201 339 l 1,41,-1
 201 229 l 1,42,-1
 263 229 l 2,33,34
EndSplineSet
EndChar
